<svg width="150" height="45" viewBox="0 0 150 45" fill="none" xmlns="http://www.w3.org/2000/svg">
<g clip-path="url(#clip0_1_367)">
<g clip-path="url(#clip1_1_367)">
<path d="M51.1809 41.0928L51.8809 42.5751L52.5809 41.0928H53.4044L52.2515 43.2339V44.3456H51.5103V43.2339L50.3574 41.0928H51.1809Z" fill="#01083A"/>
<path d="M56.4513 44.3868C56.2043 44.3868 55.9984 44.3456 55.7925 44.2633C55.5866 44.1809 55.4219 44.0574 55.2984 43.8927C55.1749 43.728 55.0514 43.5633 54.969 43.3574C54.8867 43.1515 54.8455 42.9457 54.8455 42.7398C54.8455 42.5339 54.8867 42.3281 54.969 42.1222C55.0514 41.9163 55.1749 41.7516 55.2984 41.5869C55.4631 41.4222 55.6278 41.2987 55.8337 41.2163C56.0396 41.134 56.2454 41.0928 56.4925 41.0928C56.7395 41.0928 56.9454 41.134 57.1513 41.2163C57.3571 41.2987 57.5218 41.4222 57.6454 41.5869C57.7689 41.7516 57.8924 41.9163 57.9748 42.1222C58.0571 42.3281 58.0983 42.5339 58.0983 42.7398C58.0983 42.9457 58.0571 43.1515 57.9748 43.3574C57.8924 43.5633 57.7689 43.728 57.6454 43.8927C57.5218 44.0574 57.316 44.1809 57.1101 44.2633C56.9042 44.3456 56.6572 44.3868 56.4513 44.3868ZM55.5866 42.7398C55.5866 42.8633 55.5866 42.9868 55.6278 43.1104C55.669 43.2339 55.7102 43.3162 55.7925 43.4398C55.8749 43.5221 55.9572 43.6045 56.0807 43.6456C56.2042 43.6868 56.3278 43.728 56.4513 43.728C56.616 43.728 56.7395 43.6868 56.8219 43.6456C56.9454 43.6045 57.0278 43.5221 57.0689 43.4398C57.1513 43.3574 57.1924 43.2339 57.2336 43.1104C57.2748 42.9868 57.2748 42.8633 57.2748 42.7398C57.2748 42.6163 57.2748 42.4928 57.2336 42.3692C57.1924 42.2457 57.1513 42.1633 57.0689 42.0398C56.9866 41.9575 56.9042 41.8751 56.7807 41.834C56.6572 41.7928 56.5336 41.7516 56.4101 41.7516C56.2866 41.7516 56.1631 41.7928 56.0396 41.834C55.916 41.8751 55.8337 41.9575 55.7925 42.0398C55.7102 42.1222 55.669 42.2457 55.6278 42.3692C55.5866 42.4928 55.5866 42.6163 55.5866 42.7398Z" fill="#01083A"/>
<path d="M61.1864 43.7278C61.3099 43.7278 61.4335 43.6866 61.5158 43.6454C61.5982 43.6043 61.6805 43.5219 61.7217 43.4396C61.7629 43.3572 61.804 43.2337 61.8452 43.1513C61.8864 43.0278 61.8864 42.9043 61.8864 42.7808V41.0926H62.6275V42.7808C62.6275 42.9866 62.5864 43.2337 62.5452 43.3984C62.504 43.6043 62.4217 43.769 62.2981 43.8925C62.1746 44.0572 62.0511 44.1395 61.8452 44.2219C61.6805 44.3042 61.4335 44.3454 61.1864 44.3454C60.9394 44.3454 60.6923 44.3042 60.5276 44.2219C60.3629 44.1395 60.1982 44.016 60.0747 43.8513C59.9512 43.6866 59.8688 43.5219 59.8276 43.316C59.7865 43.1102 59.7453 42.9043 59.7453 42.6984V41.0103H60.4864V42.6984C60.4864 42.8219 60.4864 42.9455 60.5276 43.069C60.5688 43.1925 60.61 43.2749 60.6511 43.3572C60.6923 43.4396 60.7747 43.5219 60.857 43.5631C60.9394 43.6866 61.0629 43.7278 61.1864 43.7278Z" fill="#01083A"/>
<path d="M64.4804 44.3866V41.1338H65.9627C66.1274 41.1338 66.2509 41.175 66.3744 41.2161C66.498 41.2985 66.6215 41.3808 66.7038 41.4632C66.7862 41.5867 66.8685 41.6691 66.9097 41.8338C66.9509 41.9573 66.9921 42.0808 66.9921 42.2455C66.9921 42.3278 66.9921 42.4514 66.9509 42.5337C66.9097 42.6161 66.9097 42.6984 66.8274 42.7808C66.7862 42.8631 66.745 42.9455 66.6627 42.9866C66.5803 43.069 66.5391 43.1102 66.4568 43.1513L67.1568 44.3454H66.2921L65.6745 43.2749H65.1804V44.3454H64.4804V44.3866ZM65.2627 42.6572H65.9627C66.045 42.6572 66.1274 42.6161 66.2097 42.5337C66.2921 42.4514 66.2921 42.3278 66.2921 42.2043C66.2921 42.0808 66.2509 41.9573 66.1686 41.8749C66.0862 41.7926 66.0039 41.7514 65.9215 41.7514H65.2627V42.6572Z" fill="#01083A"/>
<path d="M71.2331 44.3866V41.1338H71.9742V44.3866H71.2331Z" fill="#01083A"/>
<path d="M74.6506 42.4927V44.3456H73.9094V41.0928H74.4859L76.0094 43.028V41.0928H76.7505V44.3456H76.1329L74.6506 42.4927Z" fill="#01083A"/>
<path d="M80.168 41.7926V44.3866H79.4269V41.7926H78.4387V41.1338H81.1974V41.7926H80.168Z" fill="#01083A"/>
<path d="M85.109 43.7278V44.3866H82.8032V41.1338H85.0678V41.7926H83.5855V42.4102H84.862V43.0278H83.5855V43.7278H85.109Z" fill="#01083A"/>
<path d="M89.0618 44.0571C88.8147 44.3041 88.5265 44.3865 88.1971 44.3865C87.9912 44.3865 87.7854 44.3453 87.5795 44.263C87.3736 44.1806 87.2089 44.0571 87.0854 43.9336C86.9619 43.7689 86.8383 43.6042 86.756 43.3983C86.6736 43.1924 86.6325 42.9454 86.6325 42.6983C86.6325 42.4924 86.6736 42.2454 86.756 42.0807C86.8383 41.8748 86.9619 41.7101 87.0854 41.5454C87.2501 41.3807 87.4148 41.2984 87.6207 41.1749C87.8265 41.0925 88.0324 41.0513 88.2795 41.0513C88.5677 41.0513 88.8559 41.1337 89.0618 41.2572C89.2677 41.3807 89.4735 41.5454 89.5559 41.7925L88.9794 42.2042C88.8971 42.0395 88.8147 41.9572 88.65 41.8748C88.5265 41.7925 88.3618 41.7513 88.1971 41.7513C88.0736 41.7513 87.9501 41.7925 87.8677 41.8337C87.7854 41.8748 87.6618 41.9572 87.6207 42.0395C87.5383 42.1219 87.4971 42.2454 87.456 42.3689C87.4148 42.4925 87.4148 42.616 87.4148 42.7395C87.4148 42.863 87.456 43.0277 87.4971 43.1101C87.5383 43.1924 87.5795 43.3159 87.6618 43.4395C87.7442 43.5218 87.8265 43.6042 87.9501 43.6453C88.0736 43.6865 88.1559 43.7277 88.3206 43.7277C88.6089 43.7277 88.8971 43.6042 89.103 43.3159V43.2336H88.4853V42.6983H89.7618V44.3865H89.1441V44.0571H89.0618Z" fill="#01083A"/>
<path d="M91.4911 44.3866V41.1338H92.9734C93.1381 41.1338 93.2616 41.175 93.3852 41.2161C93.5087 41.2985 93.6322 41.3808 93.7146 41.4632C93.7969 41.5867 93.8792 41.6691 93.9204 41.8338C93.9616 41.9573 94.0028 42.0808 94.0028 42.2455C94.0028 42.3278 94.0028 42.4514 93.9616 42.5337C93.9204 42.6161 93.9204 42.6984 93.8381 42.7808C93.7969 42.8631 93.7557 42.9455 93.6734 42.9866C93.591 43.069 93.5498 43.1102 93.4675 43.1513L94.1675 44.3454H93.3028L92.6852 43.2749H92.2323V44.3454H91.4911V44.3866ZM92.2323 42.6572H92.9322C93.0146 42.6572 93.0969 42.6161 93.1793 42.5337C93.2616 42.4514 93.2616 42.3278 93.2616 42.2043C93.2616 42.0808 93.2204 41.9573 93.1381 41.8749C93.0557 41.7926 92.9734 41.7514 92.8911 41.7514H92.2323V42.6572Z" fill="#01083A"/>
<path d="M96.7203 41.0928H97.4203L98.6144 44.3456H97.832L97.585 43.6456H96.5556L96.3086 44.3868H95.5262L96.7203 41.0928ZM97.4615 43.1104L97.0909 41.9575L96.7203 43.1104H97.4615Z" fill="#01083A"/>
<path d="M101.702 41.7926V44.3866H100.961V41.7926H99.9731V41.1338H102.732V41.7926H101.702Z" fill="#01083A"/>
<path d="M104.338 44.3866V41.1338H105.079V44.3866H104.338Z" fill="#01083A"/>
<path d="M108.455 44.3868C108.208 44.3868 108.002 44.3456 107.796 44.2633C107.59 44.1809 107.426 44.0574 107.302 43.8927C107.179 43.728 107.055 43.5633 106.973 43.3574C106.89 43.1515 106.849 42.9457 106.849 42.7398C106.849 42.5339 106.89 42.3281 106.973 42.1222C107.055 41.9163 107.179 41.7516 107.302 41.5869C107.467 41.4222 107.632 41.2987 107.838 41.2163C108.043 41.134 108.249 41.0928 108.496 41.0928C108.743 41.0928 108.949 41.134 109.155 41.2163C109.361 41.2987 109.526 41.4222 109.649 41.5869C109.773 41.7516 109.896 41.9163 109.979 42.1222C110.061 42.3281 110.102 42.5339 110.102 42.7398C110.102 42.9457 110.061 43.1515 109.979 43.3574C109.896 43.5633 109.773 43.728 109.649 43.8927C109.526 44.0574 109.32 44.1809 109.114 44.2633C108.908 44.3456 108.702 44.3868 108.455 44.3868ZM107.59 42.7398C107.59 42.8633 107.59 42.9868 107.632 43.1104C107.673 43.2339 107.714 43.3162 107.796 43.4398C107.879 43.5221 107.961 43.6045 108.085 43.6456C108.208 43.6868 108.332 43.728 108.455 43.728C108.579 43.728 108.743 43.6868 108.826 43.6456C108.949 43.6045 109.032 43.5221 109.073 43.4398C109.155 43.3574 109.196 43.2339 109.237 43.1104C109.279 42.9868 109.279 42.8633 109.279 42.7398C109.279 42.6163 109.279 42.4928 109.237 42.3692C109.196 42.2457 109.155 42.1633 109.073 42.0398C108.99 41.9575 108.908 41.8751 108.785 41.834C108.661 41.7928 108.537 41.7516 108.414 41.7516C108.29 41.7516 108.126 41.7928 108.043 41.834C107.92 41.8751 107.838 41.9575 107.796 42.0398C107.714 42.1222 107.673 42.2457 107.632 42.3692C107.632 42.4928 107.59 42.6163 107.59 42.7398Z" fill="#01083A"/>
<path d="M112.531 42.4927V44.3456H111.79V41.0928H112.367L113.89 43.028V41.0928H114.631V44.3456H114.055L112.531 42.4927Z" fill="#01083A"/>
<path d="M118.914 41.1338H120.314C120.478 41.1338 120.602 41.175 120.725 41.2161C120.849 41.2985 120.972 41.3808 121.055 41.4632C121.137 41.5867 121.219 41.6691 121.261 41.8338C121.302 41.9573 121.343 42.0808 121.343 42.2455C121.343 42.4102 121.302 42.5337 121.261 42.6572C121.219 42.7808 121.137 42.9043 121.055 43.0278C120.972 43.1513 120.849 43.2337 120.725 43.2749C120.602 43.3572 120.437 43.3572 120.314 43.3572H119.655V44.4278H118.914V41.1338ZM119.696 42.6572H120.314C120.396 42.6572 120.478 42.6161 120.561 42.5337C120.643 42.4514 120.643 42.3278 120.643 42.2043C120.643 42.122 120.643 42.0808 120.602 41.9985C120.561 41.9573 120.561 41.9161 120.519 41.8749C120.478 41.8338 120.437 41.7926 120.396 41.7926C120.355 41.7926 120.314 41.7514 120.272 41.7514H119.696V42.6572Z" fill="#01083A"/>
<path d="M123.978 41.0928H124.678L125.872 44.3456H125.09L124.843 43.6045H123.813L123.566 44.3456H122.784L123.978 41.0928ZM124.678 43.1104L124.307 41.9575L123.937 43.1104H124.678Z" fill="#01083A"/>
<path d="M127.437 44.3866V41.1338H128.919C129.084 41.1338 129.207 41.175 129.331 41.2161C129.454 41.2985 129.578 41.3808 129.66 41.4632C129.743 41.5867 129.825 41.6691 129.866 41.8338C129.907 41.9573 129.948 42.0808 129.948 42.2455C129.948 42.3278 129.948 42.4514 129.907 42.5337C129.866 42.6161 129.866 42.6984 129.784 42.7808C129.743 42.8631 129.701 42.9455 129.619 42.9866C129.537 43.069 129.495 43.1102 129.413 43.1513L130.113 44.3454H129.29L128.672 43.2749H128.178V44.3454H127.437V44.3866ZM128.178 42.6572H128.878C128.96 42.6572 129.043 42.6161 129.125 42.5337C129.207 42.4514 129.207 42.3278 129.207 42.2043C129.207 42.0808 129.166 41.9573 129.084 41.8749C129.001 41.7926 128.919 41.7514 128.837 41.7514H128.178V42.6572Z" fill="#01083A"/>
<path d="M133.284 41.7926V44.3866H132.542V41.7926H131.554V41.1338H134.313V41.7926H133.284Z" fill="#01083A"/>
<path d="M136.701 42.4927V44.3456H135.96V41.0928H136.536L138.06 43.028V41.0928H138.801V44.3456H138.183L136.701 42.4927Z" fill="#01083A"/>
<path d="M143.001 43.7278V44.3866H140.695V41.1338H142.96V41.7926H141.477V42.4102H142.754V43.0278H141.477V43.7278H143.001Z" fill="#01083A"/>
<path d="M144.771 44.3866V41.1338H146.254C146.418 41.1338 146.542 41.175 146.665 41.2161C146.789 41.2985 146.912 41.3808 146.995 41.4632C147.077 41.5867 147.16 41.6691 147.201 41.8338C147.242 41.9573 147.283 42.0808 147.283 42.2455C147.283 42.3278 147.283 42.4514 147.242 42.5337C147.201 42.6161 147.201 42.6984 147.118 42.7808C147.077 42.8631 147.036 42.9455 146.954 42.9866C146.871 43.069 146.83 43.1102 146.748 43.1513L147.448 44.3454H146.583L145.965 43.2749H145.471V44.3454H144.771V44.3866ZM145.513 42.6572H146.212C146.295 42.6572 146.377 42.6161 146.46 42.5337C146.542 42.4514 146.542 42.3278 146.542 42.2043C146.542 42.0808 146.501 41.9573 146.418 41.8749C146.336 41.7926 146.254 41.7514 146.171 41.7514H145.513V42.6572Z" fill="#01083A"/>
<path d="M105.284 27.2164V38.4983L108.208 35.5749V24.293L105.284 27.2164ZM118.543 24.293L117.308 25.487L116.113 24.293H110.678L108.414 26.5576H115.866V38.4983L118.79 35.5749V26.5576H126.284V38.4983L129.207 35.5749V26.5576L126.942 24.293H118.543ZM134.848 24.293L132.378 26.5576H132.336V30.0574L134.807 32.3221H147.077V36.1925H136.783L134.519 38.4571H147.53L150 36.1925V32.3221L147.53 30.0574H135.26V26.5576H146.459L148.724 24.293H134.848Z" fill="#01083A"/>
<path d="M11.0349 24.293L8.56437 26.5576H8.5232V30.0575L10.9937 32.3221H16.8817L19.1875 30.0575H11.4466V26.5576H22.6462L24.9108 24.293H11.0349ZM20.958 6.01135L18.6522 8.31714V17.9109L20.9168 20.1755H29.1106L31.3752 17.9109L21.5756 17.9521V8.31714L34.381 8.35831V11.9817L21.8227 12.0229L24.0873 14.2875H35.081L37.3456 12.0229V8.39949L34.8751 6.05252H20.958V6.01135ZM0.0411749 3.58203L0 20.1755H13.2583L15.5229 17.9109H2.92341V3.58203H0.0411749Z" fill="#01083A"/>
<path d="M19.1463 30.0576L16.8817 32.3223H23.2638V36.1927H12.9701L10.7054 38.4573H23.7167L26.1872 36.1927V32.3223L23.7167 30.0576H19.1463ZM29.2753 27.2166V36.1927L31.5399 38.4573H38.5808L40.8454 36.1927H32.1987V24.2932L29.2753 27.2166ZM41.0513 26.6813V42.1219H31.4987L29.2341 44.3865H41.5454L44.0159 42.1219V24.2932L41.0513 26.6813ZM49.698 24.2932L47.2275 26.5578H47.1864V30.0576L49.6569 32.3223H56.6566L58.9624 30.0576H50.1098V26.5578H62.2564L64.521 24.2932H49.698ZM43.3571 6.01153L41.0925 8.27615H53.7743V11.7348H41.9983L39.7337 13.9995V17.9111L41.9983 20.1757H51.2215L53.4861 17.9111H42.616V13.9995H53.692V20.1757L56.6154 17.2934V8.27615L54.1037 6.01153H43.3571ZM77.9028 0L74.9794 2.67637V5.97035H62.0505L59.7859 8.23497V17.8699L62.0505 20.1345H69.2149L71.4795 17.8699H62.6681V8.27615H74.9794V14.4524L77.9028 11.6113V0Z" fill="#01083A"/>
<path d="M83.5851 6.01172H97.4199L99.8904 8.35869V11.9821L97.6258 14.2467H86.6321L84.3674 11.9821L96.9258 11.9409V8.31751L84.1204 8.27634V17.8701L93.92 17.8289L91.6554 20.0935H83.4616L81.197 17.8289V8.31751L83.0499 6.46464L83.5851 6.01172ZM113.231 6.01172L108.702 10.541L104.173 6.01172H100.467L106.849 12.3938L99.0669 20.1759H102.773L108.702 14.2467L113.396 18.9406L115.249 17.0878L110.596 12.435L116.978 6.05289H113.231V6.01172ZM74.9796 20.1759H77.903V11.5703L74.9796 14.4114V20.1759ZM62.3801 30.0578H58.9626L56.6156 32.3225H61.886V36.1929H52.704L50.3982 38.4575H62.4213L64.8917 36.1929V32.3225L62.3801 30.0578ZM93.8377 38.4575L96.1023 36.1929L86.3027 36.2341V26.5991L99.108 26.6403V30.2637L86.5497 30.3049L88.8143 32.5695H99.808L99.8904 32.4872L102.073 30.3049V26.6815L99.6021 24.3345H85.7674L83.4616 26.6403V36.2341L85.7262 38.4987H93.8377V38.4575ZM70.7386 36.1929L73.0032 38.4575H74.2384L76.5031 36.1929H73.662V26.558H80.25L82.5558 24.2934H73.662V21.864H70.7386V24.2934H67.4034V26.558H70.7386V36.1929Z" fill="#01083A"/>
</g>
</g>
<defs>
<clipPath id="clip0_1_367">
<rect width="150" height="45" fill="white"/>
</clipPath>
<clipPath id="clip1_1_367">
<rect width="150" height="45" fill="white"/>
</clipPath>
</defs>
</svg>
