<svg width="705" height="751" viewBox="0 0 705 751" fill="none" xmlns="http://www.w3.org/2000/svg">
<g clip-path="url(#clip0_1_14)">
<path opacity="0.4" fill-rule="evenodd" clip-rule="evenodd" d="M542.589 564.193L489.679 656L542.589 747.807H648.411L701.321 656L648.411 564.193H542.589ZM650.25 561H540.75L486 656L540.75 751H650.25L705 656L650.25 561Z" fill="white"/>
<path opacity="0.4" fill-rule="evenodd" clip-rule="evenodd" d="M541.589 377.193L488.679 469L541.589 560.807H647.411L700.321 469L647.411 377.193H541.589ZM649.25 374H539.75L485 469L539.75 564H649.25L704 469L649.25 374Z" fill="white"/>
<path opacity="0.4" fill-rule="evenodd" clip-rule="evenodd" d="M540.589 190.193L487.679 282L540.589 373.807H646.411L699.321 282L646.411 190.193H540.589ZM648.25 187H538.75L484 282L538.75 377H648.25L703 282L648.25 187Z" fill="white"/>
<path opacity="0.3" fill-rule="evenodd" clip-rule="evenodd" d="M379.589 284.193L326.679 376L379.589 467.807H485.411L538.321 376L485.411 284.193H379.589ZM487.25 281H377.75L323 376L377.75 471H487.25L542 376L487.25 281Z" fill="white"/>
<path opacity="0.2" fill-rule="evenodd" clip-rule="evenodd" d="M217.589 191.193L164.679 283L217.589 374.807H323.411L376.321 283L323.411 191.193H217.589ZM325.25 188H215.75L161 283L215.75 378H325.25L380 283L325.25 188Z" fill="white"/>
<path opacity="0.2" fill-rule="evenodd" clip-rule="evenodd" d="M218.589 378.193L165.679 470L218.589 561.807H324.411L377.321 470L324.411 378.193H218.589ZM326.25 375H216.75L162 470L216.75 565H326.25L381 470L326.25 375Z" fill="white"/>
<path opacity="0.1" fill-rule="evenodd" clip-rule="evenodd" d="M56.5885 285.193L3.67885 377L56.5885 468.807H162.411L215.321 377L162.411 285.193H56.5885ZM164.25 282H54.75L0 377L54.75 472H164.25L219 377L164.25 282Z" fill="white"/>
<mask id="mask0_1_14" style="mask-type:luminance" maskUnits="userSpaceOnUse" x="60" y="342" width="100" height="70">
<path d="M60 342H160V411.853H60V342Z" fill="white"/>
</mask>
<g mask="url(#mask0_1_14)">
<path fill-rule="evenodd" clip-rule="evenodd" d="M101.522 349.647C104.75 346.287 109.243 344.206 114.206 344.206C120.823 344.206 126.559 347.883 129.647 353.361C132.388 352.135 135.358 351.503 138.36 351.504C150.272 351.504 159.941 361.247 159.941 373.269C159.941 385.291 150.272 395.034 138.36 395.034C136.904 395.034 135.485 394.887 134.096 394.611C131.393 399.427 126.228 402.699 120.346 402.699C117.951 402.704 115.586 402.16 113.434 401.111C110.695 407.545 104.316 412.067 96.8897 412.067C89.1323 412.067 82.5514 407.177 80.0147 400.302C78.8856 400.54 77.7348 400.66 76.5808 400.659C67.3529 400.659 59.8896 393.086 59.8896 383.784C59.8896 377.534 63.2499 372.093 68.2352 369.152C67.1776 366.715 66.6332 364.087 66.636 361.431C66.636 350.696 75.3492 342.02 86.0845 342.02C92.3713 342.02 97.9963 345.016 101.526 349.667" fill="#00A1E0"/>
</g>
<path fill-rule="evenodd" clip-rule="evenodd" d="M74.4632 378.324C74.4003 378.488 74.4856 378.522 74.5058 378.551C74.6937 378.687 74.8845 378.785 75.0757 378.896C76.0977 379.437 77.061 379.595 78.0683 379.595C80.1198 379.595 81.3955 378.503 81.3955 376.745V376.711C81.3955 375.086 79.9543 374.494 78.6088 374.071L78.4327 374.014C77.4143 373.684 76.5356 373.396 76.5356 372.727V372.693C76.5356 372.12 77.0503 371.697 77.8444 371.697C78.7268 371.697 79.7782 371.991 80.451 372.362C80.451 372.362 80.6503 372.491 80.7227 372.299C80.7621 372.195 81.1051 371.277 81.1418 371.174C81.1808 371.066 81.1124 370.985 81.0422 370.943C80.2702 370.472 79.204 370.152 78.101 370.152L77.8963 370.153C76.0176 370.153 74.7051 371.289 74.7051 372.914V372.949C74.7051 374.662 76.1536 375.221 77.5066 375.607L77.7242 375.675C78.7095 375.978 79.5624 376.241 79.5624 376.932V376.967C79.5624 377.603 79.0073 378.077 78.1176 378.077C77.7716 378.077 76.6691 378.071 75.4742 377.316C75.3297 377.232 75.2474 377.171 75.136 377.103C75.0771 377.067 74.9301 377.003 74.8661 377.196L74.4617 378.321M104.498 378.321C104.436 378.485 104.521 378.519 104.542 378.548C104.729 378.684 104.921 378.783 105.112 378.893C106.134 379.434 107.097 379.592 108.104 379.592C110.156 379.592 111.432 378.5 111.432 376.742V376.708C111.432 375.083 109.994 374.491 108.645 374.068L108.469 374.011C107.45 373.681 106.572 373.394 106.572 372.724V372.69C106.572 372.117 107.086 371.694 107.88 371.694C108.763 371.694 109.811 371.988 110.487 372.359C110.487 372.359 110.686 372.488 110.759 372.296C110.798 372.192 111.141 371.274 111.175 371.171C111.214 371.063 111.145 370.982 111.075 370.94C110.303 370.469 109.237 370.149 108.134 370.149L107.929 370.15C106.05 370.15 104.738 371.286 104.738 372.911V372.946C104.738 374.659 106.186 375.218 107.539 375.604L107.757 375.672C108.746 375.975 109.595 376.238 109.595 376.929V376.964C109.595 377.6 109.04 378.074 108.15 378.074C107.803 378.074 106.698 378.068 105.507 377.313C105.362 377.229 105.278 377.171 105.168 377.1C105.131 377.077 104.958 377.009 104.898 377.193L104.494 378.318M125.009 374.877C125.009 375.869 124.823 376.652 124.461 377.208C124.099 377.755 123.553 378.024 122.792 378.024C122.031 378.024 121.487 377.758 121.13 377.211C120.771 376.66 120.59 375.873 120.59 374.88C120.59 373.888 120.772 373.108 121.13 372.56C121.486 372.016 122.027 371.755 122.792 371.755C123.557 371.755 124.101 372.019 124.461 372.56C124.826 373.108 125.009 373.888 125.009 374.88M126.722 373.038C126.553 372.469 126.292 371.969 125.943 371.549C125.593 371.13 125.152 370.792 124.626 370.549C124.104 370.305 123.487 370.182 122.788 370.182C122.09 370.182 121.476 370.306 120.95 370.549C120.428 370.794 119.983 371.13 119.634 371.549C119.285 371.969 119.023 372.469 118.854 373.038C118.687 373.605 118.602 374.222 118.602 374.88C118.602 375.538 118.687 376.156 118.854 376.722C119.022 377.292 119.284 377.792 119.634 378.211C119.983 378.63 120.428 378.965 120.95 379.204C121.476 379.442 122.093 379.563 122.788 379.563C123.483 379.563 124.101 379.442 124.623 379.204C125.145 378.966 125.59 378.63 125.939 378.211C126.288 377.792 126.549 377.292 126.718 376.722C126.885 376.156 126.97 375.538 126.97 374.88C126.97 374.226 126.885 373.605 126.718 373.038M140.799 377.744C140.743 377.578 140.58 377.641 140.58 377.641C140.332 377.736 140.066 377.824 139.783 377.868C139.497 377.913 139.18 377.935 138.845 377.935C138.018 377.935 137.356 377.689 136.886 377.2C136.411 376.711 136.147 375.924 136.15 374.858C136.153 373.888 136.387 373.16 136.808 372.601C137.224 372.049 137.864 371.763 138.709 371.763C139.415 371.763 139.955 371.845 140.522 372.022C140.522 372.022 140.656 372.08 140.72 371.903C140.871 371.488 140.982 371.19 141.143 370.734C141.189 370.604 141.077 370.549 141.036 370.533C140.814 370.446 140.29 370.304 139.893 370.244C139.521 370.187 139.091 370.158 138.606 370.158C137.885 370.158 137.246 370.281 136.698 370.525C136.15 370.769 135.687 371.106 135.319 371.525C134.951 371.944 134.672 372.444 134.484 373.014C134.299 373.58 134.205 374.202 134.205 374.86C134.205 376.279 134.587 377.43 135.345 378.271C136.102 379.117 137.242 379.544 138.727 379.544C139.606 379.544 140.507 379.366 141.154 379.11C141.154 379.11 141.277 379.05 141.223 378.906L140.801 377.744M143.797 373.921C143.879 373.369 144.03 372.91 144.268 372.553C144.623 372.009 145.165 371.711 145.926 371.711C146.687 371.711 147.19 372.01 147.551 372.553C147.79 372.912 147.894 373.388 147.933 373.921L143.779 373.92L143.797 373.921ZM149.569 372.708C149.423 372.16 149.062 371.605 148.826 371.351C148.451 370.95 148.087 370.667 147.723 370.513C147.198 370.289 146.633 370.175 146.062 370.176C145.337 370.176 144.679 370.298 144.146 370.547C143.613 370.798 143.165 371.139 142.812 371.565C142.459 371.992 142.194 372.495 142.025 373.073C141.856 373.642 141.771 374.267 141.771 374.922C141.771 375.591 141.859 376.212 142.033 376.775C142.209 377.341 142.493 377.837 142.875 378.249C143.258 378.664 143.747 378.988 144.335 379.216C144.919 379.442 145.629 379.559 146.441 379.557C148.118 379.551 149 379.178 149.361 378.976C149.425 378.94 149.486 378.878 149.41 378.699L149.031 377.636C148.973 377.478 148.813 377.535 148.813 377.535C148.397 377.69 147.809 377.969 146.43 377.965C145.53 377.964 144.864 377.698 144.445 377.281C144.019 376.855 143.805 376.234 143.772 375.351L149.581 375.356C149.581 375.356 149.734 375.354 149.75 375.205C149.756 375.143 149.949 374.014 149.577 372.709L149.569 372.708ZM97.3632 373.921C97.4452 373.369 97.5966 372.91 97.8338 372.553C98.1896 372.009 98.7308 371.711 99.4918 371.711C100.253 371.711 100.757 372.01 101.117 372.553C101.355 372.912 101.46 373.388 101.499 373.921L97.3448 373.92L97.3632 373.921ZM103.135 372.708C102.99 372.16 102.628 371.605 102.393 371.351C102.018 370.95 101.654 370.667 101.29 370.513C100.764 370.289 100.199 370.175 99.6279 370.176C98.9036 370.176 98.2455 370.298 97.7124 370.547C97.1793 370.798 96.7308 371.139 96.3779 371.565C96.026 371.992 95.7602 372.495 95.5911 373.073C95.4224 373.642 95.3374 374.267 95.3374 374.922C95.3374 375.591 95.4253 376.212 95.6007 376.775C95.7764 377.341 96.0602 377.837 96.4389 378.249C96.8213 378.664 97.3102 378.988 97.8985 379.216C98.483 379.442 99.1889 379.559 100.005 379.557C101.682 379.551 102.564 379.178 102.924 378.976C102.988 378.94 103.049 378.878 102.973 378.699L102.594 377.636C102.536 377.478 102.376 377.535 102.376 377.535C101.96 377.69 101.372 377.969 99.9933 377.965C99.0963 377.964 98.4271 377.698 98.008 377.281C97.5815 376.855 97.3683 376.234 97.3352 375.351L103.144 375.356C103.144 375.356 103.297 375.354 103.313 375.205C103.319 375.143 103.512 374.014 103.139 372.709L103.135 372.708ZM84.8264 377.708C84.5988 377.526 84.5672 377.481 84.4918 377.363C84.3768 377.186 84.3179 376.933 84.3179 376.61C84.3179 376.102 84.4871 375.735 84.8363 375.488C84.8327 375.489 85.3363 375.055 86.5202 375.069C87.0471 375.079 87.5728 375.124 88.0937 375.203V377.839C88.0937 377.839 87.3591 377.998 86.5282 378.048C85.3481 378.119 84.826 377.708 84.8297 377.709L84.8264 377.708ZM87.1352 373.627C86.8999 373.609 86.5948 373.601 86.2308 373.601C85.7345 373.601 85.2529 373.663 84.8043 373.784C84.3521 373.906 83.944 374.095 83.5948 374.346C83.2446 374.596 82.9565 374.923 82.7529 375.302C82.5474 375.685 82.4426 376.133 82.4426 376.641C82.4426 377.155 82.5319 377.6 82.7084 377.964C82.8813 378.325 83.1416 378.637 83.4657 378.872C83.7882 379.107 84.1863 379.28 84.6459 379.383C85.1018 379.487 85.6165 379.54 86.1827 379.54C86.7782 379.54 87.3702 379.49 87.9437 379.393C88.4322 379.309 88.9188 379.214 89.4032 379.109C89.5966 379.065 89.8113 379.006 89.8113 379.006C89.9547 378.97 89.9437 378.817 89.9437 378.817L89.9404 373.523C89.9404 372.361 89.6301 371.497 89.0176 370.964C88.4073 370.431 87.5139 370.162 86.3558 370.162C85.922 370.162 85.2198 370.221 84.8007 370.305C84.8007 370.305 83.536 370.551 83.0139 370.96C83.0139 370.96 82.8992 371.03 82.9617 371.19L83.3735 372.293C83.4246 372.436 83.5639 372.387 83.5639 372.387C83.5639 372.387 83.6077 372.37 83.6591 372.339C84.7731 371.733 86.1849 371.751 86.1849 371.751C86.8099 371.751 87.2952 371.878 87.6187 372.126C87.9352 372.369 88.0966 372.737 88.0966 373.509V373.754C87.6003 373.682 87.1407 373.64 87.1407 373.64L87.1352 373.627ZM133.826 370.638C133.835 370.618 133.839 370.597 133.839 370.576C133.839 370.555 133.835 370.534 133.827 370.515C133.819 370.495 133.807 370.478 133.792 370.463C133.777 370.448 133.759 370.437 133.739 370.429C133.64 370.391 133.147 370.287 132.769 370.264C132.041 370.218 131.636 370.341 131.272 370.504C130.913 370.666 130.515 370.927 130.294 371.228V370.523C130.294 370.426 130.225 370.347 130.127 370.347H128.642C128.546 370.347 128.476 370.426 128.476 370.523V379.162C128.476 379.209 128.494 379.254 128.527 379.287C128.56 379.32 128.605 379.338 128.652 379.338H130.174C130.22 379.338 130.265 379.32 130.298 379.287C130.331 379.254 130.35 379.209 130.35 379.162V374.824C130.35 374.243 130.414 373.666 130.541 373.302C130.667 372.942 130.838 372.655 131.048 372.449C131.249 372.25 131.495 372.103 131.765 372.019C132.019 371.946 132.281 371.909 132.545 371.909C132.848 371.909 133.181 371.987 133.181 371.987C133.293 372 133.355 371.931 133.393 371.831C133.492 371.566 133.775 370.772 133.83 370.614" fill="#FEFEFE"/>
<path fill-rule="evenodd" clip-rule="evenodd" d="M119.611 366.649C119.423 366.593 119.231 366.547 119.038 366.513C118.777 366.47 118.513 366.45 118.249 366.452C117.2 366.452 116.374 366.749 115.793 367.334C115.217 367.915 114.824 368.8 114.628 369.964L114.557 370.357H113.24C113.24 370.357 113.079 370.351 113.046 370.526L112.829 371.732C112.814 371.847 112.864 371.919 113.018 371.919H114.3L113 379.177C112.898 379.762 112.781 380.242 112.652 380.607C112.525 380.966 112.401 381.236 112.248 381.431C112.1 381.621 111.959 381.76 111.717 381.841C111.517 381.909 111.287 381.94 111.035 381.94C110.894 381.94 110.707 381.916 110.57 381.888C110.432 381.861 110.36 381.83 110.257 381.787C110.257 381.787 110.106 381.73 110.047 381.88C109.999 382.004 109.657 382.943 109.617 383.059C109.576 383.174 109.634 383.264 109.706 383.29C109.877 383.351 110.004 383.39 110.236 383.445C110.559 383.521 110.831 383.526 111.086 383.526C111.62 383.526 112.106 383.451 112.509 383.305C112.915 383.159 113.268 382.903 113.581 382.557C113.919 382.184 114.131 381.793 114.335 381.26C114.536 380.732 114.707 380.076 114.844 379.312L116.151 371.919H118.061C118.061 371.919 118.222 371.924 118.256 371.75L118.472 370.544C118.487 370.429 118.438 370.356 118.282 370.357H116.428C116.438 370.315 116.522 369.663 116.735 369.049C116.825 368.787 116.996 368.576 117.141 368.43C117.276 368.292 117.443 368.188 117.627 368.128C117.828 368.066 118.038 368.036 118.249 368.038C118.424 368.038 118.595 368.059 118.726 368.087C118.906 368.125 118.975 368.145 119.022 368.159C119.211 368.217 119.237 368.161 119.274 368.069L119.717 366.852C119.763 366.721 119.652 366.666 119.611 366.649ZM93.7012 379.192C93.7012 379.29 93.632 379.369 93.535 379.369H91.9971C91.8997 379.369 91.8306 379.29 91.8306 379.192V366.815C91.8306 366.718 91.8997 366.64 91.9971 366.64H93.535C93.632 366.64 93.7012 366.718 93.7012 366.815V379.192Z" fill="#FEFEFE"/>
<path opacity="0.3" fill-rule="evenodd" clip-rule="evenodd" d="M378.589 97.1933L325.679 189L378.589 280.807H484.411L537.321 189L484.411 97.1933H378.589ZM486.25 94H376.75L322 189L376.75 284H486.25L541 189L486.25 94Z" fill="white"/>
<path opacity="0.4" fill-rule="evenodd" clip-rule="evenodd" d="M539.589 3.19328L486.679 95L539.589 186.807H645.411L698.321 95L645.411 3.19328H539.589ZM647.25 0H537.75L483 95L537.75 190H647.25L702 95L647.25 0Z" fill="white"/>
<path opacity="0.3" fill-rule="evenodd" clip-rule="evenodd" d="M380.589 471.193L327.679 563L380.589 654.807H486.411L539.321 563L486.411 471.193H380.589ZM488.25 468H378.75L324 563L378.75 658H488.25L543 563L488.25 468Z" fill="white"/>
<path d="M406.764 383.314H410.846C411.164 383.324 411.482 383.271 411.78 383.156C412.077 383.041 412.349 382.868 412.578 382.647C412.807 382.425 412.989 382.16 413.114 381.867C413.238 381.574 413.302 381.259 413.302 380.941C413.302 380.623 413.238 380.308 413.114 380.014C412.989 379.721 412.807 379.456 412.578 379.235C412.349 379.014 412.077 378.84 411.78 378.726C411.482 378.611 411.164 378.557 410.846 378.568H406.764C406.146 378.587 405.561 378.846 405.131 379.289C404.701 379.732 404.461 380.324 404.461 380.941C404.461 381.557 404.701 382.15 405.131 382.593C405.561 383.036 406.146 383.294 406.764 383.314Z" fill="white"/>
<path fill-rule="evenodd" clip-rule="evenodd" d="M464.014 398.204C462.355 398.204 460.763 397.911 459.287 397.372C456.665 399.626 453.274 400.984 449.571 400.984C446.936 400.984 444.459 400.296 442.304 399.087C439.55 402.685 435.249 405 430.416 405C425.379 405 420.92 402.487 418.188 398.627C415.246 400.324 411.844 401.293 408.22 401.293C397.053 401.293 388 392.096 388 380.751C388 369.406 397.053 360.209 408.22 360.209C409.315 360.209 410.39 360.298 411.439 360.468C414.04 352.081 421.757 346 430.872 346C439.623 346 447.086 351.606 449.969 359.477C451.412 358.951 452.967 358.665 454.588 358.665C461.42 358.665 467.083 363.753 468.106 370.403C473.834 372.181 478 377.594 478 383.995C478 391.842 471.738 398.204 464.014 398.204ZM431.4 382.018H427.637L428.469 383.309H432.283L433.067 384.605H434.732L430.267 377.639C430.168 377.502 430.037 377.39 429.886 377.314C429.735 377.237 429.568 377.198 429.398 377.199C429.228 377.2 429.062 377.242 428.912 377.321C428.761 377.399 428.632 377.513 428.535 377.652L424.083 384.605H425.748L429.409 378.809L431.4 382.018ZM444.936 377.269V383.309L444.929 383.317H451.516L450.678 384.613H444.246C444.15 384.613 444.055 384.594 443.967 384.557C443.879 384.52 443.799 384.466 443.732 384.398C443.665 384.334 443.612 384.257 443.576 384.172C443.54 384.088 443.521 383.996 443.521 383.904V377.269H444.936ZM423.3 381.504C422.834 381.969 422.201 382.231 421.542 382.231H420.906L423.741 384.605H421.691L417.47 380.942H421.456C421.771 380.942 422.074 380.817 422.297 380.594C422.52 380.372 422.645 380.07 422.645 379.755C422.645 379.44 422.52 379.138 422.297 378.915C422.074 378.693 421.771 378.568 421.456 378.568H416.77V384.605H415.358V377.269H421.542C422.201 377.269 422.834 377.531 423.3 377.996C423.766 378.461 424.028 379.092 424.028 379.75C424.028 380.408 423.766 381.039 423.3 381.504ZM410.942 384.605H406.67C406.179 384.618 405.691 384.532 405.234 384.354C404.777 384.175 404.361 383.907 404.009 383.565C403.658 383.224 403.378 382.815 403.188 382.364C402.997 381.913 402.899 381.428 402.899 380.938C402.899 380.449 402.997 379.964 403.188 379.513C403.378 379.062 403.658 378.653 404.009 378.311C404.361 377.97 404.777 377.702 405.234 377.523C405.691 377.344 406.179 377.259 406.67 377.272H410.942C411.9 377.296 412.811 377.694 413.48 378.379C414.148 379.064 414.523 379.982 414.523 380.938C414.523 381.895 414.148 382.813 413.48 383.498C412.811 384.183 411.9 384.58 410.942 384.605ZM442.045 384.605H437.683C437.193 384.618 436.705 384.532 436.248 384.354C435.791 384.175 435.374 383.907 435.023 383.565C434.671 383.224 434.392 382.815 434.201 382.364C434.01 381.913 433.912 381.428 433.912 380.938C433.912 380.449 434.01 379.964 434.201 379.513C434.392 379.062 434.671 378.653 435.023 378.311C435.374 377.97 435.791 377.702 436.248 377.523C436.705 377.344 437.193 377.259 437.683 377.272H442.759L441.923 378.568H437.78C437.461 378.557 437.143 378.611 436.846 378.726C436.548 378.84 436.277 379.014 436.048 379.235C435.819 379.456 435.636 379.721 435.512 380.014C435.387 380.308 435.323 380.623 435.323 380.941C435.323 381.259 435.387 381.574 435.512 381.867C435.636 382.16 435.819 382.425 436.048 382.647C436.277 382.868 436.548 383.041 436.846 383.156C437.143 383.271 437.461 383.324 437.78 383.314H442.871L442.045 384.605ZM453.531 382.834C453.945 383.146 454.449 383.314 454.967 383.314L454.965 383.312H460.061L459.232 384.603H454.871C453.913 384.578 453.002 384.181 452.333 383.496C451.665 382.811 451.29 381.892 451.29 380.936C451.29 379.98 451.665 379.061 452.333 378.376C453.002 377.691 453.913 377.294 454.871 377.269H459.942L459.113 378.565H454.967C454.449 378.564 453.945 378.733 453.531 379.045C453.118 379.357 452.817 379.795 452.677 380.293H459.549L458.718 381.586H452.677C452.818 382.084 453.118 382.522 453.531 382.834Z" fill="white"/>
<path d="M253.672 463.243C253.672 464.277 253.784 465.115 253.979 465.73C254.203 466.344 254.482 467.015 254.873 467.741C255.013 467.965 255.069 468.188 255.069 468.384C255.069 468.663 254.901 468.942 254.538 469.222L252.778 470.395C252.527 470.563 252.275 470.647 252.052 470.647C251.772 470.647 251.493 470.507 251.213 470.256C250.822 469.836 250.487 469.389 250.208 468.942C249.928 468.468 249.649 467.937 249.342 467.294C247.163 469.864 244.425 471.15 241.128 471.15C238.781 471.15 236.909 470.479 235.541 469.138C234.172 467.797 233.473 466.009 233.473 463.774C233.473 461.399 234.311 459.472 236.015 458.019C237.72 456.566 239.983 455.84 242.86 455.84C243.81 455.84 244.788 455.924 245.822 456.063C246.855 456.203 247.917 456.426 249.034 456.678V454.638C249.034 452.515 248.587 451.035 247.721 450.168C246.827 449.302 245.319 448.883 243.167 448.883C242.19 448.883 241.184 448.995 240.15 449.247C239.117 449.498 238.111 449.805 237.133 450.196C236.686 450.392 236.351 450.504 236.155 450.56C235.96 450.615 235.82 450.643 235.708 450.643C235.317 450.643 235.121 450.364 235.121 449.777V448.408C235.121 447.961 235.177 447.626 235.317 447.431C235.457 447.235 235.708 447.039 236.099 446.844C237.077 446.341 238.25 445.922 239.619 445.587C240.988 445.224 242.441 445.056 243.978 445.056C247.302 445.056 249.733 445.81 251.297 447.319C252.834 448.827 253.616 451.118 253.616 454.191V463.243H253.672ZM242.329 467.49C243.251 467.49 244.201 467.322 245.207 466.987C246.213 466.652 247.107 466.037 247.861 465.199C248.308 464.668 248.643 464.081 248.811 463.411C248.978 462.74 249.09 461.93 249.09 460.98V459.807C248.28 459.611 247.414 459.444 246.52 459.332C245.626 459.22 244.76 459.164 243.894 459.164C242.022 459.164 240.653 459.528 239.731 460.282C238.809 461.036 238.362 462.098 238.362 463.495C238.362 464.808 238.697 465.786 239.396 466.456C240.066 467.154 241.044 467.49 242.329 467.49ZM264.763 470.507C264.26 470.507 263.925 470.423 263.702 470.228C263.478 470.06 263.282 469.669 263.115 469.138L256.55 447.542C256.382 446.984 256.298 446.62 256.298 446.425C256.298 445.978 256.522 445.726 256.969 445.726H259.706C260.237 445.726 260.6 445.81 260.796 446.006C261.02 446.173 261.187 446.565 261.355 447.095L266.048 465.59L270.407 447.095C270.546 446.537 270.714 446.173 270.937 446.006C271.161 445.838 271.552 445.726 272.055 445.726H274.29C274.821 445.726 275.184 445.81 275.407 446.006C275.631 446.173 275.826 446.565 275.938 447.095L280.352 465.813L285.185 447.095C285.353 446.537 285.549 446.173 285.744 446.006C285.968 445.838 286.331 445.726 286.834 445.726H289.432C289.879 445.726 290.13 445.95 290.13 446.425C290.13 446.565 290.102 446.704 290.075 446.872C290.047 447.039 289.991 447.263 289.879 447.57L283.146 469.166C282.978 469.725 282.783 470.088 282.559 470.256C282.336 470.423 281.973 470.535 281.498 470.535H279.095C278.564 470.535 278.201 470.451 277.978 470.256C277.754 470.06 277.559 469.697 277.447 469.138L273.116 451.118L268.814 469.11C268.674 469.669 268.507 470.032 268.283 470.228C268.06 470.423 267.669 470.507 267.166 470.507H264.763ZM300.663 471.261C299.21 471.261 297.757 471.094 296.36 470.758C294.964 470.423 293.874 470.06 293.148 469.641C292.701 469.389 292.393 469.11 292.282 468.859C292.17 468.607 292.114 468.328 292.114 468.076V466.652C292.114 466.065 292.337 465.786 292.757 465.786C292.924 465.786 293.092 465.813 293.259 465.869C293.427 465.925 293.678 466.037 293.958 466.149C294.908 466.568 295.941 466.903 297.031 467.127C298.148 467.35 299.238 467.462 300.356 467.462C302.116 467.462 303.485 467.154 304.434 466.54C305.384 465.925 305.887 465.031 305.887 463.886C305.887 463.104 305.636 462.461 305.133 461.93C304.63 461.399 303.68 460.924 302.311 460.477L298.26 459.22C296.221 458.578 294.712 457.628 293.79 456.371C292.868 455.141 292.393 453.772 292.393 452.32C292.393 451.146 292.645 450.113 293.148 449.219C293.651 448.325 294.321 447.542 295.159 446.928C295.997 446.285 296.947 445.81 298.065 445.475C299.182 445.14 300.356 445 301.585 445C302.199 445 302.842 445.028 303.457 445.112C304.099 445.196 304.686 445.307 305.273 445.419C305.831 445.559 306.362 445.698 306.865 445.866C307.368 446.034 307.759 446.201 308.038 446.369C308.429 446.592 308.709 446.816 308.876 447.067C309.044 447.291 309.128 447.598 309.128 447.989V449.302C309.128 449.889 308.904 450.196 308.485 450.196C308.262 450.196 307.899 450.085 307.424 449.861C305.831 449.135 304.043 448.772 302.06 448.772C300.467 448.772 299.21 449.023 298.344 449.554C297.478 450.085 297.031 450.895 297.031 452.04C297.031 452.823 297.31 453.493 297.869 454.024C298.428 454.555 299.462 455.085 300.942 455.56L304.909 456.818C306.921 457.46 308.374 458.354 309.24 459.5C310.106 460.645 310.525 461.958 310.525 463.411C310.525 464.612 310.273 465.702 309.798 466.652C309.296 467.601 308.625 468.44 307.759 469.11C306.893 469.809 305.859 470.311 304.658 470.675C303.401 471.066 302.088 471.261 300.663 471.261Z" fill="white"/>
<path fill-rule="evenodd" clip-rule="evenodd" d="M305.943 484.838C296.752 491.627 283.398 495.231 271.915 495.231C255.823 495.231 241.324 489.28 230.372 479.39C229.506 478.608 230.288 477.546 231.322 478.161C243.168 485.034 257.779 489.196 272.893 489.196C283.09 489.196 294.293 487.073 304.602 482.715C306.139 482.016 307.452 483.721 305.943 484.838Z" fill="white"/>
<path fill-rule="evenodd" clip-rule="evenodd" d="M309.771 480.48C308.597 478.972 302.004 479.754 299.015 480.117C298.121 480.229 297.981 479.447 298.791 478.86C304.044 475.172 312.676 476.234 313.682 477.463C314.688 478.72 313.403 487.353 308.486 491.488C307.731 492.13 307.005 491.795 307.34 490.957C308.458 488.191 310.944 481.961 309.771 480.48Z" fill="white"/>
<path d="M234.928 296.998C240.184 296.069 244.526 295.301 244.576 295.29L244.666 295.271L239.704 289.368C236.974 286.122 234.741 283.453 234.741 283.437C234.741 283.408 239.865 269.297 239.894 269.247C239.904 269.23 243.391 275.25 248.348 283.841C252.988 291.884 256.814 298.515 256.849 298.577L256.914 298.69L241.142 298.688L225.371 298.686L234.928 296.998ZM295.411 295.57C293.01 295.416 291.613 294.049 291.243 291.49C291.145 290.81 291.145 290.792 291.135 286.373L291.125 282.096H292.187H293.25L293.258 286.233C293.266 289.962 293.271 290.399 293.306 290.661C293.451 291.725 293.739 292.441 294.229 292.955C294.622 293.366 295.081 293.607 295.717 293.735C296.017 293.795 296.87 293.795 297.144 293.735C297.789 293.593 298.305 293.313 298.761 292.857C299.281 292.338 299.665 291.601 299.851 290.767L299.914 290.487L299.921 286.315L299.928 282.143H301.012H302.097V288.701V295.259H301.024H299.95V294.219C299.95 293.512 299.942 293.181 299.926 293.186C299.912 293.191 299.857 293.275 299.803 293.374C299.433 294.049 298.817 294.666 298.141 295.037C297.332 295.483 296.52 295.641 295.411 295.57ZM319.778 295.56C318.931 295.496 318.039 295.205 317.309 294.753C315.772 293.803 314.863 292.235 314.596 290.078C314.504 289.332 314.493 288.329 314.57 287.695C314.742 286.278 315.299 284.887 316.092 283.893C316.295 283.639 316.756 283.178 317.011 282.974C317.698 282.425 318.502 282.042 319.356 281.855C319.854 281.746 320.73 281.695 321.258 281.744C322.586 281.867 323.803 282.492 324.63 283.476C325.47 284.476 325.932 285.873 325.991 287.593C326.001 287.862 326.003 288.335 325.996 288.643L325.984 289.203L321.334 289.209L316.684 289.215V289.422C316.684 290.054 316.838 290.774 317.103 291.386C317.332 291.914 317.726 292.49 318.049 292.769C318.711 293.341 319.52 293.683 320.406 293.766C320.735 293.796 321.572 293.764 321.947 293.707C323.015 293.543 324.031 293.124 324.851 292.509C324.947 292.436 325.04 292.369 325.056 292.358C325.08 292.343 325.086 292.532 325.085 293.327L325.084 294.314L324.865 294.45C323.937 295.024 322.874 295.392 321.748 295.53C321.413 295.572 320.18 295.59 319.778 295.56ZM323.826 287.233C323.826 286.175 323.38 285 322.749 284.394C322.298 283.962 321.754 283.698 321.107 283.598C320.8 283.551 320.155 283.569 319.832 283.634C319.15 283.772 318.585 284.072 318.093 284.559C317.575 285.071 317.186 285.692 316.942 286.401C316.854 286.656 316.751 287.074 316.72 287.307L316.704 287.418H320.265H323.826V287.233ZM260.746 295.23C260.751 295.214 262.33 291.066 264.255 286.011L267.754 276.822H268.878H270.003L270.096 277.061C270.381 277.792 277.101 295.239 277.101 295.249C277.101 295.255 276.563 295.259 275.905 295.259H274.709L273.74 292.68L272.772 290.102H268.872L264.972 290.101L264.938 290.189C264.92 290.237 264.506 291.397 264.019 292.768L263.133 295.259H261.934C260.985 295.259 260.738 295.253 260.746 295.23ZM272.06 288.134C272.06 288.13 271.408 286.362 270.612 284.207C269.121 280.174 269.038 279.931 268.92 279.284C268.865 278.98 268.837 278.972 268.804 279.249C268.781 279.447 268.679 279.89 268.601 280.136C268.562 280.258 267.891 282.1 267.109 284.229C266.328 286.359 265.688 288.11 265.688 288.121C265.688 288.132 267.122 288.141 268.874 288.141C270.626 288.141 272.06 288.138 272.06 288.134ZM277.825 294.924V294.588L281.71 289.246L285.596 283.905L282.078 283.893L278.56 283.882L278.554 282.989L278.548 282.096H283.636H288.724V282.398V282.699L284.838 288.07C282.701 291.024 280.952 293.445 280.952 293.451C280.952 293.457 282.68 293.462 284.791 293.462H288.631V294.361V295.259H283.228H277.825V294.924ZM306.337 295.244C306.328 295.235 306.321 292.274 306.321 288.662V282.096H307.383H308.445V283.45C308.445 284.194 308.454 284.804 308.465 284.804C308.476 284.804 308.528 284.682 308.58 284.533C308.819 283.85 309.233 283.212 309.766 282.706C310.247 282.249 310.796 281.976 311.444 281.871C311.626 281.842 311.78 281.836 312.145 281.846C312.602 281.858 312.841 281.891 313.119 281.982L313.206 282.011V283.113V284.215L312.956 284.09C312.512 283.868 312.075 283.78 311.549 283.807C311.207 283.825 310.983 283.869 310.709 283.972C310.146 284.183 309.69 284.556 309.371 285.065C308.909 285.801 308.58 286.748 308.483 287.619C308.465 287.775 308.455 289.047 308.451 291.554L308.445 295.259H307.399C306.823 295.259 306.346 295.252 306.337 295.244ZM216 295.198C216 295.189 218.338 291.13 221.196 286.177L226.393 277.172L232.449 272.09C235.779 269.295 238.513 267.004 238.524 267C238.535 266.996 238.491 267.106 238.427 267.245C238.362 267.384 235.403 273.731 231.851 281.349L225.393 295.201L220.696 295.207C218.113 295.21 216 295.206 216 295.198Z" fill="white"/>
<path d="M463.592 166.338C463.131 164.863 462.025 163.664 460.641 162.926L432.513 149.461C431.775 149.092 430.945 149 430.207 149C429.469 149 428.639 149 427.902 149.184L399.773 162.741C398.39 163.387 397.376 164.586 397.007 166.154L390.09 196.495C389.813 198.063 390.182 199.631 391.104 200.922L410.564 224.993C411.67 226.099 413.238 226.837 414.806 226.929H445.793C447.453 227.114 449.021 226.376 450.035 224.993L469.495 200.922C470.417 199.631 470.786 198.063 470.601 196.495L463.592 166.338Z" fill="white"/>
<path d="M459.258 195.297C459.166 195.297 459.074 195.297 459.074 195.204C459.074 195.112 458.889 195.112 458.705 195.112C458.336 195.02 457.967 195.02 457.598 195.02C457.413 195.02 457.229 195.02 457.045 194.928H456.952C455.938 194.836 454.831 194.651 453.817 194.374C453.54 194.282 453.263 194.006 453.171 193.729L452.433 193.544C452.802 190.87 452.618 188.103 452.064 185.429C451.419 182.754 450.312 180.172 448.837 177.866L449.39 177.313V177.221C449.39 176.944 449.482 176.575 449.667 176.391C450.497 175.653 451.327 175.1 452.249 174.546C452.433 174.454 452.618 174.362 452.802 174.27C453.171 174.085 453.448 173.901 453.817 173.716C453.909 173.624 454.001 173.624 454.093 173.532C454.186 173.44 454.093 173.44 454.093 173.347C454.923 172.702 455.108 171.595 454.462 170.765C454.186 170.396 453.632 170.12 453.171 170.12C452.71 170.12 452.249 170.304 451.88 170.581L451.788 170.673C451.696 170.765 451.603 170.857 451.511 170.857C451.234 171.134 450.958 171.411 450.773 171.687C450.681 171.872 450.497 171.964 450.404 172.056C449.759 172.794 448.929 173.532 448.099 174.085C447.914 174.177 447.73 174.27 447.546 174.27C447.453 174.27 447.269 174.27 447.177 174.177H447.084L446.347 174.639C445.609 173.901 444.779 173.163 444.041 172.425C440.629 169.751 436.386 168.091 432.052 167.63L431.96 166.892V166.984C431.683 166.8 431.591 166.523 431.499 166.246C431.499 165.232 431.499 164.217 431.683 163.111V163.018C431.683 162.834 431.775 162.649 431.775 162.465C431.867 162.096 431.867 161.727 431.96 161.358V160.805C432.052 159.883 431.314 158.96 430.392 158.868C429.839 158.776 429.285 159.053 428.824 159.514C428.455 159.883 428.271 160.344 428.271 160.805V161.266C428.271 161.635 428.363 162.004 428.455 162.373C428.547 162.557 428.547 162.742 428.547 162.926V163.018C428.732 164.033 428.732 165.047 428.732 166.154C428.64 166.431 428.547 166.707 428.271 166.892V167.076L428.178 167.814C427.164 167.906 426.15 168.091 425.043 168.275C420.708 169.197 416.743 171.503 413.699 174.731L413.146 174.362H413.054C412.962 174.362 412.869 174.454 412.685 174.454C412.5 174.454 412.316 174.362 412.132 174.27C411.302 173.624 410.472 172.886 409.826 172.149C409.734 171.964 409.549 171.872 409.457 171.78C409.18 171.503 408.996 171.226 408.719 170.95C408.627 170.857 408.535 170.857 408.443 170.765C408.35 170.673 408.35 170.673 408.35 170.673C407.981 170.396 407.52 170.212 407.059 170.212C406.506 170.212 406.045 170.396 405.768 170.857C405.215 171.687 405.399 172.794 406.137 173.44C406.229 173.44 406.229 173.532 406.229 173.532C406.229 173.532 406.414 173.716 406.506 173.716C406.783 173.901 407.151 174.085 407.52 174.27C407.705 174.362 407.889 174.454 408.074 174.546C408.996 175.1 409.918 175.653 410.656 176.391C410.84 176.575 411.025 176.944 410.933 177.221V177.129L411.486 177.682C411.394 177.866 411.302 177.959 411.209 178.143C408.35 182.662 407.151 188.011 407.981 193.268L407.244 193.452C407.244 193.544 407.151 193.544 407.151 193.544C407.059 193.821 406.783 194.006 406.506 194.19C405.491 194.467 404.477 194.651 403.37 194.743C403.186 194.743 403.001 194.743 402.817 194.836C402.448 194.836 402.079 194.928 401.71 194.928C401.618 194.928 401.526 195.02 401.341 195.02C401.249 195.02 401.249 195.02 401.157 195.112C400.142 195.297 399.497 196.219 399.681 197.233C399.866 198.063 400.696 198.617 401.526 198.525C401.71 198.525 401.802 198.525 401.987 198.432C402.079 198.432 402.079 198.432 402.079 198.34C402.079 198.248 402.356 198.34 402.448 198.34C402.817 198.248 403.186 198.063 403.462 197.971C403.647 197.879 403.831 197.787 404.016 197.787H404.108C405.123 197.418 406.045 197.141 407.151 196.957H407.244C407.52 196.957 407.797 197.049 407.981 197.233C408.074 197.233 408.074 197.326 408.074 197.326L408.904 197.233C410.287 201.476 412.869 205.257 416.466 208.024C417.296 208.669 418.034 209.223 418.956 209.684L418.495 210.329C418.495 210.421 418.587 210.421 418.587 210.421C418.772 210.698 418.772 211.067 418.679 211.344C418.311 212.266 417.757 213.188 417.204 214.018V214.11C417.112 214.295 417.019 214.387 416.835 214.572C416.651 214.756 416.466 215.125 416.189 215.494C416.097 215.586 416.097 215.678 416.005 215.77C416.005 215.77 416.005 215.863 415.913 215.863C415.452 216.785 415.82 217.892 416.651 218.353C416.835 218.445 417.112 218.537 417.296 218.537C418.034 218.537 418.679 218.076 419.048 217.43C419.048 217.43 419.048 217.338 419.141 217.338C419.141 217.246 419.233 217.154 419.325 217.062C419.417 216.693 419.602 216.416 419.694 216.047L419.878 215.494C420.155 214.479 420.616 213.557 421.077 212.635C421.262 212.358 421.538 212.174 421.815 212.081C421.907 212.081 421.907 212.081 421.907 211.989L422.276 211.251C424.858 212.266 427.533 212.727 430.3 212.727C431.96 212.727 433.62 212.543 435.28 212.081C436.294 211.897 437.309 211.528 438.231 211.251L438.6 211.897C438.692 211.897 438.692 211.897 438.692 211.989C438.969 212.081 439.245 212.266 439.43 212.543C439.891 213.465 440.352 214.387 440.629 215.402V215.494L440.813 216.047C440.905 216.416 440.998 216.785 441.182 217.062C441.274 217.154 441.274 217.246 441.367 217.338C441.367 217.338 441.367 217.43 441.459 217.43C441.828 218.076 442.473 218.537 443.211 218.537C443.488 218.537 443.672 218.445 443.949 218.353C444.318 218.168 444.687 217.799 444.779 217.338C444.871 216.877 444.871 216.416 444.687 215.955C444.687 215.863 444.594 215.863 444.594 215.863C444.594 215.77 444.502 215.678 444.41 215.586C444.225 215.217 444.041 214.94 443.764 214.664C443.672 214.479 443.58 214.387 443.395 214.203V214.018C442.75 213.188 442.289 212.266 441.92 211.344C441.828 211.067 441.828 210.698 442.012 210.421C442.012 210.329 442.104 210.329 442.104 210.329L441.828 209.591C446.531 206.732 450.128 202.306 451.788 197.049L452.526 197.141C452.618 197.141 452.618 197.049 452.618 197.049C452.802 196.865 453.079 196.772 453.356 196.772H453.448C454.462 196.957 455.477 197.233 456.399 197.602H456.491C456.676 197.695 456.86 197.787 457.045 197.787C457.413 197.971 457.69 198.156 458.059 198.248C458.151 198.248 458.243 198.34 458.428 198.34C458.52 198.34 458.52 198.34 458.612 198.432C458.797 198.525 458.889 198.525 459.074 198.525C459.904 198.525 460.641 197.971 460.918 197.233C460.826 196.219 460.088 195.481 459.258 195.297ZM432.605 192.438L430.115 193.637L427.625 192.438L426.98 189.763L428.732 187.55H431.499L433.251 189.763L432.605 192.438ZM447.638 186.443C448.099 188.38 448.191 190.317 448.007 192.253L439.245 189.763C438.415 189.579 437.954 188.749 438.139 187.919C438.231 187.642 438.323 187.458 438.508 187.273L445.424 181.002C446.439 182.662 447.177 184.507 447.638 186.443ZM442.658 177.59L435.095 182.939C434.45 183.308 433.527 183.215 433.066 182.57C432.882 182.385 432.79 182.201 432.79 181.924L432.236 172.61C436.294 173.071 439.891 174.823 442.658 177.59ZM425.965 172.886L427.81 172.517L427.348 181.74C427.348 182.57 426.611 183.215 425.781 183.215C425.504 183.215 425.32 183.123 425.043 183.031L417.388 177.59C419.786 175.284 422.737 173.624 425.965 172.886ZM414.714 181.002L421.538 187.089C422.184 187.642 422.276 188.564 421.723 189.21C421.538 189.487 421.354 189.579 420.985 189.671L412.039 192.253C411.763 188.38 412.685 184.414 414.714 181.002ZM413.146 196.588L422.276 195.02C423.014 195.02 423.752 195.481 423.844 196.219C423.936 196.496 423.936 196.865 423.752 197.141L420.247 205.626C417.019 203.505 414.437 200.277 413.146 196.588ZM434.081 208.024C432.79 208.3 431.499 208.485 430.115 208.485C428.178 208.485 426.15 208.116 424.305 207.562L428.824 199.355C429.285 198.801 430.023 198.617 430.669 198.986C430.945 199.17 431.13 199.355 431.406 199.631L435.833 207.655C435.28 207.747 434.726 207.839 434.081 208.024ZM445.332 200C443.949 202.214 442.012 204.15 439.799 205.534L436.202 196.865C436.018 196.127 436.386 195.389 437.032 195.112C437.309 195.02 437.585 194.928 437.862 194.928L447.084 196.496C446.623 197.787 446.07 198.986 445.332 200Z" fill="#1814A4"/>
<path d="M627.909 255.633C627.124 253.946 626.215 252.317 625.16 250.781L613.89 255.046C615.2 256.441 616.302 258.009 617.202 259.686L627.909 255.633ZM578.092 268.596L566.818 272.861C566.962 274.741 567.275 276.598 567.712 278.418L578.421 274.363C578.073 272.479 577.949 270.538 578.092 268.596Z" fill="#FEFEFE"/>
<path d="M603.138 252.473C605.502 253.573 607.549 255.073 609.276 256.832L620.636 252.709C617.489 248.304 613.203 244.624 607.952 242.181C591.711 234.627 572.335 241.66 564.763 257.856C562.312 263.097 561.4 268.664 561.829 274.055L573.191 269.931C573.379 267.476 573.979 265.015 575.081 262.656C580.002 252.133 592.587 247.566 603.138 252.473Z" fill="white"/>
<path d="M615.01 273.079C614.829 275.534 614.208 277.995 613.103 280.356C608.182 290.883 595.591 295.45 585.039 290.543C582.671 289.441 580.608 287.952 578.887 286.189L567.546 290.305C570.687 294.71 574.969 298.392 580.225 300.838C596.471 308.391 615.849 301.357 623.425 285.156C625.879 279.918 626.783 274.35 626.351 268.964L615.01 273.079Z" fill="white"/>
<path d="M618.136 260.236L607.195 264.035C609.228 267.51 610.189 271.51 609.873 275.533L621.364 271.545C621.035 267.61 619.936 263.77 618.136 260.236ZM567.577 277.792L556.637 281.595C557.641 285.401 559.385 289.017 561.782 292.236L573.271 288.245C570.322 285.355 568.361 281.699 567.577 277.792Z" fill="#FEFEFE"/>
<path d="M626.455 252.575C626.099 251.966 625.729 251.365 625.335 250.781L614.031 255.118C614.528 255.654 614.986 256.224 615.423 256.808L626.455 252.575ZM578.082 271.286C578.055 270.492 578.067 269.694 578.125 268.894L566.818 273.231C566.877 273.994 566.968 274.752 567.076 275.509L578.082 271.286Z" fill="#FEFEFE"/>
<path d="M626.353 268.964L615.012 273.06C614.892 274.681 614.574 276.305 614.053 277.902L626.398 273.434C626.486 271.937 626.472 270.444 626.353 268.964ZM567.546 290.208C568.419 291.428 569.386 292.592 570.436 293.691L582.783 289.222C581.34 288.326 580.036 287.281 578.886 286.11L567.546 290.208Z" fill="#FEFEFE"/>
<path d="M625.932 314.937V315.939H628.903V324.808H630.027V315.939H633V314.937H625.932ZM619.11 315.938V319.21H621.878V320.211H619.11V324.807H617.985V314.938H623.913V315.938H619.11ZM613.964 314.939H615.089V324.809H613.964V314.939ZM609.944 324.808V320.154H604.924V324.808H603.8V314.937H604.924V319.155H609.944V314.937H611.069V324.808H609.944ZM597.947 324.963C596.577 324.963 595.35 324.385 594.558 323.596L595.309 322.778C596.072 323.496 596.953 323.963 597.991 323.963C599.332 323.963 600.169 323.314 600.169 322.27C600.169 321.353 599.607 320.832 597.761 320.183C595.582 319.421 594.847 318.731 594.847 317.307C594.847 315.727 596.115 314.781 598.005 314.781C599.361 314.781 600.226 315.177 601.077 315.84L600.356 316.7C599.621 316.107 598.942 315.783 597.934 315.783C596.548 315.783 595.972 316.459 595.972 317.236C595.972 318.055 596.347 318.518 598.366 319.225C600.602 320.013 601.294 320.748 601.294 322.214C601.294 323.765 600.053 324.963 597.947 324.963ZM590 324.808L586.294 319.422C586.048 319.055 585.716 318.561 585.586 318.307C585.586 318.674 585.616 319.914 585.616 320.464V324.808H583.624V314.937H585.557L589.135 320.154C589.381 320.521 589.711 321.015 589.841 321.269C589.841 320.902 589.813 319.662 589.813 319.111V314.937H591.803V324.808H590ZM574.08 324.808V314.937H581.09V316.869H576.1V318.576H579V320.493H576.1V322.876H581.306V324.808H574.08ZM568.343 321.312H566.122V324.808H564.103V314.938H568.516C570.42 314.938 571.992 315.968 571.992 318.067C571.992 320.352 570.435 321.312 568.343 321.312ZM568.445 316.856H566.122V319.393H568.473C569.411 319.393 569.916 318.969 569.916 318.109C569.916 317.25 569.338 316.856 568.445 316.856ZM557.443 324.963C554.803 324.963 553 323.074 553 319.887C553 316.7 554.832 314.781 557.473 314.781C560.097 314.781 561.9 316.672 561.9 319.859C561.9 323.046 560.068 324.963 557.443 324.963ZM557.429 316.742C556.016 316.742 555.078 317.857 555.078 319.859C555.078 321.862 556.059 323.002 557.473 323.002C558.886 323.002 559.822 321.889 559.822 319.887C559.822 317.884 558.843 316.742 557.429 316.742Z" fill="white"/>
<path d="M606.389 474.405C611.644 474.405 619.253 473.312 619.253 467.048C619.253 466.569 619.211 466.091 619.127 465.619L616.016 451.998C615.302 449.013 614.671 447.626 609.416 445.02C605.338 442.918 596.468 439.513 593.82 439.513C591.339 439.513 590.625 442.666 587.724 442.666C584.908 442.666 582.848 440.311 580.199 440.311C577.677 440.311 576.037 442.035 574.776 445.566C574.776 445.566 571.245 455.53 570.782 457.001C570.713 457.261 570.685 457.531 570.698 457.8C570.656 461.667 585.916 474.363 606.389 474.405ZM620.052 469.613C620.767 473.06 620.767 473.438 620.767 473.858C620.767 479.744 614.167 483.023 605.465 483.023C585.79 483.023 568.596 471.504 568.596 463.895C568.594 462.84 568.809 461.795 569.227 460.826C562.164 461.163 553 462.424 553 470.495C553 483.738 584.361 500.049 609.164 500.049C628.208 500.049 633 491.431 633 484.62C633 479.281 628.376 473.228 620.052 469.613Z" fill="white"/>
<path d="M620.052 469.614C620.767 473.061 620.767 473.439 620.767 473.86C620.767 479.745 614.167 483.024 605.465 483.024C585.791 483.024 568.597 471.505 568.597 463.896C568.595 462.841 568.809 461.797 569.227 460.827L570.783 457.002C570.713 457.262 570.685 457.532 570.699 457.801C570.699 461.668 585.959 474.364 606.39 474.364C611.645 474.364 619.254 473.271 619.254 467.007C619.253 466.528 619.211 466.05 619.127 465.578L620.052 469.614Z" fill="#1814A4"/>
<path d="M434.99 524L394 543.938L422.793 558.195L465.788 534.916L434.99 524Z" fill="#EDEDED"/>
<path d="M474.476 579.47L434.823 604.699L422.793 558.251L465.788 534.972L474.476 579.47Z" fill="white"/>
<path d="M406.698 586.599L394.056 543.938L422.849 558.196L434.878 604.643L406.698 586.599Z" fill="#E4E4E4"/>
<path d="M409.483 549.062C409.372 549.117 408.982 549.841 409.094 549.953C409.149 550.064 409.706 550.565 409.818 550.454C409.873 550.342 410.319 549.674 410.207 549.563C410.152 549.451 409.595 548.95 409.483 549.062ZM421.457 590.552C421.402 590.552 421.179 590.719 421.179 590.887C421.179 590.942 421.402 591.165 421.457 591.165C421.513 591.165 421.791 590.942 421.736 590.831C421.791 590.719 421.569 590.552 421.457 590.552ZM407.924 543.548C408.258 543.826 409.205 543.771 409.483 543.27C409.595 543.047 409.818 542.824 409.873 542.546C410.04 542.267 409.873 541.766 409.818 541.432C409.762 541.098 410.04 540.763 410.152 540.485C410.319 540.151 410.653 540.262 410.876 540.151C411.154 540.095 411.321 539.594 411.488 539.315C411.655 539.037 411.377 539.093 411.266 539.148L409.372 539.594C408.982 539.705 408.481 539.649 408.258 540.095L407.256 541.877C406.922 542.546 407.534 543.214 407.924 543.548ZM405.195 544.328L405.863 543.158C405.919 543.047 406.587 542.156 406.532 541.989C406.476 541.822 405.529 542.156 405.418 542.211C405.084 542.267 404.638 542.267 404.415 542.657C404.248 542.935 403.636 543.659 403.97 543.994C404.304 544.272 404.861 544.885 405.195 544.328ZM400.294 547.112C400.517 547.335 400.684 547.279 400.962 547.224C401.297 547.168 401.631 547.057 401.965 547.001C402.188 546.945 402.522 546.778 402.745 547.001C403.19 547.391 403.469 547.781 404.081 547.614L405.028 547.391C405.306 547.335 405.474 547.057 405.585 546.722C405.808 546.333 404.75 545.664 404.471 545.72C404.081 545.831 403.134 546.277 402.745 545.943C402.522 545.776 402.355 545.553 402.132 545.386C401.909 545.219 401.575 545.33 401.352 545.386L400.461 545.609C400.183 545.664 400.016 546.054 399.849 546.333C399.682 546.722 400.071 546.945 400.294 547.112ZM406.532 544.272C406.587 544.383 406.977 544.718 407.033 544.55C407.089 544.495 407.367 544.049 407.256 543.938C407.2 543.882 406.866 543.492 406.754 543.659C406.699 543.715 406.42 544.161 406.532 544.272ZM405.975 544.662C405.863 544.718 405.474 545.442 405.585 545.553C405.696 545.664 406.198 546.221 406.309 546.054C406.42 545.998 406.81 545.274 406.699 545.163C406.643 545.052 406.03 544.55 405.975 544.662ZM410.597 546.5C410.931 546.667 411.043 547.001 411.098 547.391C411.154 547.725 411.098 548.17 411.377 548.338C411.6 548.56 411.878 548.783 412.101 548.95C412.602 549.396 413.215 549.953 413.772 549.34C414.217 548.894 413.883 548.115 413.493 547.781C413.326 547.614 413.215 547.279 413.215 547.001C413.215 546.778 413.605 546.333 413.382 546.11C412.881 545.72 412.435 545.274 411.934 544.885C411.6 544.606 410.987 543.826 410.542 543.938L408.704 544.328C408.37 544.383 407.59 545.609 407.924 545.887L408.648 546.5C408.926 546.722 409.316 546.5 409.595 546.444C409.929 546.444 410.374 546.277 410.597 546.5ZM412.157 541.877C412.435 541.989 412.825 541.821 413.103 541.766C413.772 541.599 414.217 541.432 414.774 541.989C415.22 542.378 415.777 542.713 416.166 543.214C416.389 543.381 416.389 543.882 416.445 544.161C416.501 544.606 416.556 545.052 416.612 545.442C416.668 545.831 416.946 545.887 417.169 546.11C417.447 546.333 417.447 547.001 417.503 547.391C417.614 548.059 418.45 548.505 418.84 548.894C419.118 549.173 419.619 549.173 419.898 548.894C420.288 548.505 420.176 547.948 420.065 547.391C420.009 546.945 420.176 546.667 420.399 546.277L421.179 544.885C421.402 544.495 421.791 544.495 422.126 544.439C422.571 544.328 422.738 544.216 423.017 543.715C423.295 543.27 423.406 542.991 423.295 542.49C423.239 542.1 422.961 541.265 423.184 540.93C423.351 540.596 423.518 540.318 423.406 539.928C423.351 539.649 423.184 539.594 423.072 539.427C422.905 539.26 422.85 538.981 422.85 538.703C422.738 537.923 423.629 537.477 423.685 536.753C423.741 536.364 423.574 536.141 423.295 536.197L422.181 536.419C421.958 536.475 421.736 536.586 421.513 536.586C421.179 536.642 420.789 536.197 420.566 535.974C420.232 535.64 419.397 535.974 418.895 536.085C418.45 536.197 417.392 536.364 417.225 536.642C416.89 537.255 416.723 537.812 416.111 537.923L414.106 538.369C413.605 538.48 413.27 539.482 412.992 539.984C412.825 540.318 412.602 540.318 412.324 540.429C411.934 540.485 411.822 540.708 411.6 541.097C411.433 541.376 411.934 541.766 412.157 541.877ZM427.806 548.672C427.918 548.839 427.806 549.062 427.973 549.229C428.196 549.451 428.419 549.786 428.363 550.175C428.363 550.342 427.75 551.066 428.085 551.234C428.196 551.289 428.307 550.788 428.475 550.732C428.642 550.621 428.92 550.732 429.087 550.565C429.477 550.287 429.477 549.674 429.087 549.396L428.475 548.894C428.14 548.616 428.53 548.449 428.475 548.226C428.419 547.948 428.085 548.115 427.973 548.003C427.806 547.892 427.918 547.335 427.695 547.391C427.639 547.391 427.472 547.669 427.472 547.725C427.416 547.836 427.472 548.17 427.472 548.338C427.583 548.449 427.695 548.505 427.806 548.672ZM431.927 554.909C431.983 554.854 432.206 554.464 432.095 554.408C432.039 554.352 431.76 554.018 431.705 554.185C431.649 554.241 431.426 554.631 431.538 554.686C431.538 554.742 431.872 555.021 431.927 554.909ZM460.219 550.342C460.331 550.064 460.832 550.008 460.999 549.953C461.389 549.841 461.556 549.451 461.611 549.229C461.723 548.95 461.667 548.672 461.667 548.393C461.611 548.17 461.556 547.781 461.333 547.446C461.277 547.391 460.999 547.001 460.832 547.112C460.609 547.224 460.999 548.226 460.999 548.672C460.999 549.006 460.553 549.229 460.386 549.284C460.163 549.396 459.941 549.507 459.829 549.73C459.718 549.953 458.994 551.234 459.05 551.401C459.105 551.568 459.439 551.401 459.551 551.345C459.718 551.234 459.829 551.011 459.941 550.844C460.108 550.621 460.052 550.621 460.219 550.342ZM461.611 546.89C461.667 546.834 462.001 546.388 461.89 546.166C461.834 546.054 461.556 545.72 461.333 545.831C461.277 545.887 460.999 546.333 461.055 546.555C461.11 546.667 461.444 546.945 461.611 546.89ZM455.095 563.096C455.095 562.929 455.095 562.539 454.928 562.428L453.87 561.537C453.759 561.481 452.979 560.646 452.868 560.701C452.701 560.757 452.812 561.592 453.146 561.871C453.536 562.205 453.926 562.539 454.316 562.873C454.65 563.152 454.483 563.542 454.65 563.931C454.706 564.154 455.541 564.878 455.597 564.822C455.708 564.711 455.485 563.764 455.374 563.653C455.207 563.486 455.095 563.374 455.095 563.096ZM449.248 561.425C449.192 561.481 449.025 561.759 449.081 561.926C449.081 562.038 449.248 562.205 449.415 562.149C449.582 562.094 449.638 561.926 449.526 561.704C449.471 561.648 449.359 561.37 449.248 561.425ZM458.214 554.965C458.159 554.909 457.991 554.909 457.936 555.021C457.824 555.188 457.769 555.355 457.769 555.578C457.769 555.745 457.936 555.912 458.103 555.912C458.214 555.8 458.27 555.188 458.214 554.965ZM444.013 570.782C443.901 570.726 443.289 571.951 443.289 572.118C443.233 572.397 443.4 572.619 443.344 572.898C443.289 573.121 443.122 573.399 443.01 573.566C442.899 573.789 443.066 574.012 443.066 574.513C443.066 574.791 443.344 574.958 443.567 575.126C443.957 575.348 444.514 574.736 444.57 574.235C444.625 573.733 444.403 573.009 444.291 572.508C444.235 572.341 444.18 570.837 444.013 570.782ZM459.217 564.6C459.384 564.488 459.718 563.987 459.662 563.709C459.607 563.542 459.105 563.04 458.883 563.152C458.66 563.263 458.381 563.82 458.437 564.043C458.493 564.266 459.05 564.711 459.217 564.6ZM461.333 563.207C461.556 563.207 461.834 563.096 462.113 563.04C462.503 562.929 462.614 563.597 462.67 563.876C462.725 564.321 462.781 564.822 463.171 564.99C463.561 565.157 463.895 564.822 464.062 564.544C464.173 564.377 464.34 564.21 464.563 564.377C464.619 564.433 464.897 564.767 465.009 564.711C465.064 564.655 464.953 564.043 464.897 563.931C464.842 563.709 464.563 563.542 464.452 563.43C464.285 563.263 464.062 562.985 463.839 562.929C463.616 562.873 463.394 563.152 463.171 562.929C462.837 562.65 462.503 562.149 462.113 562.261C461.946 562.316 460.665 562.428 460.609 562.65C460.553 562.818 461.166 563.207 461.333 563.207ZM466.345 576.017C466.29 576.072 465.956 576.574 466.067 576.741C466.123 576.796 466.457 577.131 466.624 577.075C466.68 577.019 466.958 576.518 466.902 576.351C466.847 576.295 466.457 575.961 466.345 576.017ZM471.97 573.789C471.915 573.678 471.58 573.343 471.413 573.455C471.358 573.51 471.079 574.012 471.135 574.179C471.191 574.29 471.525 574.624 471.692 574.513C471.803 574.457 472.082 573.956 471.97 573.789ZM470.689 574.958C470.578 575.07 470.522 575.237 470.355 575.46C470.244 575.627 469.464 576.796 469.631 576.963C469.743 577.075 470.077 577.465 470.188 577.298C470.3 577.131 470.411 576.852 470.522 576.741C470.801 576.239 471.358 575.515 471.246 575.237C471.191 575.126 470.856 574.791 470.689 574.958ZM415.22 567.106C415.164 567.106 414.941 567.273 414.997 567.384C414.997 567.44 415.275 567.663 415.387 567.607C415.442 567.607 415.665 567.44 415.61 567.329C415.61 567.329 415.331 567.106 415.22 567.106ZM413.326 565.602C413.215 565.546 412.881 565.769 413.048 565.881C413.438 566.159 413.605 566.326 413.66 566.382C414.106 566.772 414.329 566.994 414.496 566.939C414.607 566.883 414.83 566.66 414.663 566.493C414.551 566.382 414.496 566.382 414.329 566.27C413.883 566.048 413.66 565.825 413.326 565.602ZM458.994 559.699C459.105 559.81 459.495 559.142 459.495 559.03C459.551 558.808 459.105 558.418 458.994 558.418C458.827 558.418 458.493 558.975 458.493 559.086C458.437 559.365 458.883 559.699 458.994 559.699ZM458.27 558.251C458.381 558.306 458.604 557.861 458.604 557.805C458.604 557.638 458.381 557.415 458.27 557.415C458.159 557.415 457.936 557.805 457.936 557.861C457.936 558.028 458.214 558.195 458.27 558.251ZM458.437 566.103C458.047 565.769 457.657 565.435 457.267 565.101C457.212 565.045 456.933 564.767 456.822 564.822C456.766 564.878 456.488 565.379 456.599 565.435C456.711 565.546 456.878 565.714 456.989 565.769L457.769 566.438C457.824 566.493 458.047 566.716 458.159 566.66C458.27 566.716 458.548 566.215 458.437 566.103ZM456.655 563.597C456.989 563.542 457.323 563.542 457.546 563.152C457.713 562.873 458.159 562.372 458.103 561.982C458.047 561.481 457.936 560.98 457.88 560.423C457.824 560.144 457.546 559.309 457.267 559.587C457.212 559.643 457.212 559.699 457.212 559.81C457.212 560.256 457.323 560.478 457.156 560.813C456.989 561.091 456.766 561.871 456.432 561.926C456.321 561.982 455.987 561.926 455.875 562.038C455.764 562.149 455.764 562.316 455.819 562.483C455.931 563.04 456.154 563.709 456.655 563.597Z" fill="#1814A4"/>
<path d="M427.082 550.955C427.304 550.9 427.75 550.51 427.694 550.12C427.639 549.841 427.694 549.284 427.416 549.396C427.026 549.507 426.803 549.786 426.747 550.176C426.747 550.454 426.803 551.011 427.082 550.955ZM431.704 548.004C431.704 547.948 431.76 547.892 431.704 547.836C431.648 547.836 431.537 547.836 431.481 547.892C431.481 547.948 431.426 548.004 431.481 548.059C431.537 548.115 431.648 548.059 431.704 548.004ZM466.846 570.169C466.79 569.779 466.345 569.557 466.066 569.334C465.788 569.055 465.231 568.777 465.008 568.387C464.897 568.164 464.897 567.83 464.897 567.607C464.841 567.385 464.618 567.273 464.507 567.106C464.34 566.939 464.396 566.605 464.34 566.382C464.34 566.271 463.894 565.825 463.839 565.881C463.727 565.992 463.95 566.828 463.95 566.939C464.006 567.273 464.117 567.663 463.894 567.941C463.672 568.387 462.613 567.496 462.558 567.106C462.502 566.828 462.279 566.326 462.001 566.382C461.667 566.326 461.5 566.828 461.388 567.106C461.165 567.44 461.165 567.607 460.831 567.329C460.497 567.05 460.386 567.552 460.219 567.83C460.052 568.164 460.163 568.443 460.219 568.777C460.274 569.167 460.052 569.389 459.884 569.724C459.55 570.281 458.771 569.835 458.492 570.392C458.325 570.67 458.158 570.893 458.158 571.227C458.214 571.561 458.214 572.063 458.325 572.397C458.381 572.731 458.771 572.731 458.826 573.065L458.993 574.402C459.049 574.792 459.105 574.903 459.328 575.126C459.662 575.404 459.606 574.959 459.884 574.736C460.052 574.457 460.497 574.68 460.664 574.402C460.887 574.179 460.887 573.789 461.165 573.678C461.444 573.622 461.778 573.455 462.001 573.511C462.279 573.455 462.502 573.956 462.725 574.012C462.948 574.235 463.282 573.901 463.393 573.678C463.616 573.288 463.672 572.898 464.006 573.177C464.451 573.566 464.061 574.68 464.507 575.07C464.674 575.237 465.008 575.627 465.231 575.571L466.233 575.349C466.456 575.293 466.679 574.903 466.735 574.68C466.902 574.402 466.679 573.733 466.623 573.511C466.512 572.842 467.18 572.564 467.124 571.896L466.846 570.169ZM424.13 571.896C424.019 571.729 423.796 571.617 423.629 571.45C422.96 570.893 422.348 570.336 421.679 569.779C421.234 569.389 421.011 569.278 420.454 569.389C419.842 569.557 419.173 569.668 418.561 569.835C418.004 569.946 417.614 568.833 417.001 569C416.333 569.167 415.665 569.278 414.941 569.445C414.885 569.445 414.774 569.501 414.718 569.501C414.606 569.612 414.384 570.169 414.217 570.169C414.05 570.169 413.827 569.946 413.715 569.835C413.103 569.278 412.49 568.833 411.878 568.276C411.71 568.164 411.599 568.053 411.432 567.83C411.265 567.607 411.321 566.549 411.042 566.661C410.541 566.772 409.538 567.217 409.427 566.271C409.316 565.547 408.982 564.544 409.538 564.043C409.761 563.82 410.095 563.82 410.318 563.764C410.652 563.709 410.986 563.597 411.321 563.542C411.71 563.43 412.602 564.823 412.769 563.876C412.824 563.486 412.267 563.152 412.156 563.041C411.822 562.762 411.822 562.484 411.766 562.038C411.655 561.314 412.379 560.757 412.602 560.144C412.824 559.755 412.49 559.309 412.602 558.864C412.657 558.585 412.88 558.307 413.047 558.084C413.27 557.694 413.493 557.304 413.715 556.914C413.882 556.692 414.05 556.413 413.994 556.079C413.938 555.689 413.882 555.355 414.05 555.021C414.272 554.687 414.384 554.408 414.718 554.352C415.386 554.185 415.999 554.13 416.222 553.183C416.277 552.904 416.222 552.403 416.11 552.125C416.054 551.791 415.72 551.568 415.498 551.401C415.163 551.122 414.885 550.844 414.551 550.621C414.384 550.454 414.105 550.176 413.882 550.231L412.156 550.621C411.878 550.677 411.71 551.178 411.543 551.456C411.376 551.791 411.432 552.069 411.488 552.459L411.655 553.628C411.71 553.851 411.376 554.742 411.098 554.52C410.986 554.464 410.819 554.297 410.708 554.185C410.374 553.907 410.095 553.684 409.761 553.406L408.09 552.013C407.701 551.735 407.645 550.732 407.868 550.287C408.202 549.73 408.814 549.006 408.703 548.282C408.647 547.948 408.647 547.502 408.369 547.28C408.09 547.057 407.812 546.778 407.534 546.556C407.199 546.221 407.311 546.89 407.366 547.112C407.422 547.502 407.255 548.115 406.921 548.171C406.42 548.393 405.751 548.449 405.25 548.56C404.916 548.616 404.526 548.728 404.192 548.783C403.969 548.839 403.746 548.95 403.524 548.839C403.022 548.616 402.688 547.781 402.076 547.892C401.407 548.059 400.683 548.171 400.015 548.338C399.848 548.393 399.625 548.393 399.458 548.449C399.068 548.56 399.013 549.173 398.678 549.396C397.954 549.841 397.509 549.34 396.896 548.839C396.451 548.449 396.005 548.672 395.504 548.783C395.448 548.783 395.393 548.783 395.337 548.839L396.674 553.406C396.952 553.35 397.175 553.294 397.453 553.239C397.899 553.127 398.233 553.573 398.567 553.851C399.235 554.408 399.904 554.965 400.516 555.522C400.795 555.745 401.352 556.079 401.407 556.524C401.63 558.14 401.909 559.81 402.131 561.481C402.187 561.982 402.243 562.539 402.354 563.041C402.41 563.542 403.301 564.043 403.579 564.321C404.192 564.823 404.805 565.38 405.417 565.881C405.584 565.992 405.751 566.215 405.918 565.992C406.141 565.602 406.086 565.491 405.807 565.213C405.25 564.711 404.693 564.266 404.136 563.764C403.914 563.597 404.136 563.04 404.359 562.985C404.526 562.929 404.749 563.263 404.86 563.319L406.754 564.934C407.144 565.268 407.589 565.491 407.645 566.159C407.756 566.939 407.756 567.719 408.258 568.164L409.037 568.833C409.316 569.055 409.65 568.888 409.928 568.833C410.151 568.777 410.764 568.61 410.931 568.721C411.098 568.833 411.265 569 411.432 569.167C412.045 569.724 412.546 570.113 413.158 570.67C413.381 570.837 413.548 571.005 413.715 571.172C413.994 571.394 413.66 571.896 413.548 572.118C413.381 572.397 413.047 572.787 413.103 573.177C413.103 573.455 413.214 573.733 413.214 573.956C413.326 574.792 413.437 575.627 413.604 576.462C413.66 577.019 414.495 577.465 414.829 577.799C415.163 578.077 415.943 578.467 415.999 579.024L416.277 580.918C416.5 582.533 416.723 584.092 417.001 585.707C417.057 586.041 416.834 586.32 416.667 586.598C416.5 586.877 416.5 587.1 416.556 587.434C416.667 588.325 416.834 589.216 416.946 590.107C417.057 590.775 417.67 591.109 418.115 591.499C418.338 591.666 418.561 592.001 418.839 591.945C419.006 591.945 419.173 591.889 419.285 591.833C419.507 591.778 420.009 591.778 420.176 591.611C420.287 591.444 419.619 590.942 419.507 590.887C419.285 590.664 419.006 590.553 418.951 590.163C418.895 589.661 418.505 588.548 418.783 588.046C419.507 586.765 420.231 585.429 420.955 584.148C421.29 583.535 420.733 582.811 421.011 582.254C421.345 581.586 421.735 580.973 422.069 580.305C422.236 580.027 422.515 579.971 422.793 579.915C423.183 579.86 423.35 579.804 423.573 579.414C423.74 579.136 423.963 578.857 423.907 578.467C423.851 578.133 423.796 577.743 423.74 577.409C423.684 576.964 423.629 576.518 423.517 576.073C423.462 575.794 423.406 575.46 423.517 575.181C423.684 574.847 423.851 574.569 424.019 574.235C424.186 573.956 424.074 573.455 424.019 573.121C424.353 572.731 424.353 572.174 424.13 571.896ZM424.408 544.885C424.241 544.94 423.851 544.885 423.74 545.108C423.629 545.219 423.517 545.553 423.406 545.72C423.295 545.943 423.239 546.054 423.462 546.221C423.74 546.444 424.353 546.611 424.575 546.221C424.743 545.887 425.188 545.497 424.854 545.163C424.798 545.108 424.631 544.885 424.408 544.885ZM436.995 555.076C437.106 554.965 437.106 554.965 437.106 554.909C437.106 554.854 437.051 554.909 436.995 554.909C436.939 554.965 436.883 554.965 436.828 554.965C436.772 554.965 436.716 555.021 436.716 555.021C436.716 555.021 436.716 555.132 436.772 555.132C436.883 555.188 436.939 555.132 436.995 555.076Z" fill="#1814A4"/>
<path d="M453.87 558.808C454.204 559.198 454.037 559.644 453.926 560.089C453.87 560.368 453.981 560.646 454.093 560.813C454.148 560.925 454.26 560.98 454.315 560.98L454.705 561.314C454.761 561.37 454.872 561.482 454.928 561.482C455.206 561.482 455.262 561.203 455.095 561.092C454.872 560.925 454.65 560.702 454.427 560.535C454.26 560.368 454.26 559.532 454.427 559.477C454.482 559.477 454.594 559.477 454.65 559.532C454.872 559.699 455.039 559.978 455.262 559.588C455.429 559.254 455.262 558.418 454.928 558.14C454.761 557.917 454.26 557.75 454.482 557.36C454.65 557.082 454.817 556.525 455.151 556.469C455.708 556.358 456.209 556.358 456.543 555.801C456.933 555.077 457.323 554.353 457.768 553.629C457.991 553.183 457.991 552.069 457.601 551.735L456.042 550.399C455.708 550.12 456.654 548.561 456.877 548.784C457.1 548.839 457.323 549.173 457.546 549.341C457.713 549.452 458.102 550.009 458.325 549.953C458.548 549.898 458.882 549.229 458.659 549.062C458.381 548.839 458.102 548.672 458.325 548.282C458.492 548.004 458.604 547.614 458.826 547.391C459.049 547.001 459.495 547.224 459.718 546.834C459.996 546.389 460.609 545.609 460.497 544.997C460.442 544.607 460.386 544.161 460.33 543.771C460.274 543.437 460.274 542.936 460.052 542.713C459.829 542.435 459.495 542.379 459.439 541.933C459.383 541.432 459.439 541.209 459.662 540.82C459.829 540.541 459.996 540.096 460.274 540.04C460.553 539.984 460.831 539.929 461.11 539.873C461.611 539.761 462.502 539.761 462.836 539.205C463.059 538.87 463.17 538.648 463.56 538.592C464.006 538.481 464.062 538.536 464.173 539.093C464.229 539.483 464.284 539.761 464.117 540.096C463.95 540.374 463.56 540.82 463.616 541.209C463.616 541.878 463.839 542.657 463.95 543.27C464.006 543.549 464.396 544.05 464.618 543.716C464.841 543.381 465.008 542.992 465.231 542.602C465.342 542.323 465.621 541.989 465.621 541.655C465.621 541.377 465.51 541.042 465.51 540.764C465.454 540.318 465.398 539.817 465.287 539.372C465.231 539.093 465.12 538.759 465.287 538.481C465.454 538.146 465.621 537.924 465.955 537.868C466.122 537.812 466.289 537.812 466.456 537.757L465.955 535.083L462.781 533.969C462.725 533.969 462.614 533.969 462.558 533.969L460.831 534.359L458.437 534.916C458.047 535.028 457.601 535.195 457.211 535.195C456.654 535.306 456.265 534.192 455.652 534.304C454.984 534.471 454.315 534.582 453.647 534.749C453.202 534.861 452.645 535.139 452.199 534.805C451.921 534.582 451.642 534.304 451.364 534.081C451.141 533.914 450.862 533.524 450.584 533.58C450.027 533.58 447.577 534.025 447.354 534.471C446.686 535.696 446.017 536.921 445.293 538.146C445.015 538.648 444.012 538.592 443.622 538.703C443.344 538.759 443.121 538.815 442.843 538.87C442.564 538.926 442.397 539.316 442.286 539.594C442.119 539.873 442.007 540.207 441.785 540.485C441.618 540.764 441.228 540.764 441.005 540.82L439.891 541.098C439.668 541.154 439.278 541.154 439.111 541.432C438.666 541.989 438.666 542.657 437.942 542.769C437.608 542.825 437.274 542.936 436.939 542.992C436.605 543.047 436.382 542.769 436.104 542.546C435.993 542.435 435.77 542.323 435.881 542.045C435.937 541.878 436.048 541.766 436.215 541.711C436.327 541.655 436.828 541.655 436.661 541.432C436.55 541.265 436.382 541.154 436.271 541.042C436.048 540.82 435.826 540.541 435.491 540.653C435.213 540.708 434.712 540.931 434.433 540.708C434.155 540.541 434.043 540.263 433.709 540.318C433.375 540.374 432.985 540.485 432.651 540.541C432.15 540.653 431.983 541.154 431.704 541.655C431.259 542.435 430.813 543.214 430.368 544.05C430.033 544.607 429.866 544.885 429.978 545.553L430.145 546.667C430.201 546.946 430.59 547.447 430.869 547.391C430.98 547.391 431.092 547.28 431.203 547.336C431.426 547.391 431.481 547.558 431.704 547.558C431.983 547.558 432.428 547.447 432.595 547.169C432.762 546.834 432.874 546.612 432.818 546.222C432.762 545.832 432.373 545.442 432.373 545.108C432.317 544.718 432.651 544.328 432.818 544.05C432.985 543.716 433.431 543.27 433.821 543.326C434.322 543.381 434.489 543.716 434.266 544.161C433.988 544.662 433.208 544.718 433.264 545.832C433.264 546.333 433.709 546.333 433.988 546.333C434.433 546.333 434.489 546.5 434.433 547.001C434.433 547.169 434.322 547.336 434.155 547.558C433.932 547.837 433.598 547.725 433.319 547.893C433.097 548.115 433.319 548.282 432.985 548.449C432.818 548.561 432.651 548.561 432.54 548.617C432.373 548.672 432.038 548.672 431.76 548.728C431.649 548.728 431.537 548.672 431.426 548.617C431.37 548.561 431.37 548.561 431.426 548.505C431.426 548.449 431.481 548.394 431.481 548.338C431.537 548.06 431.203 547.781 431.092 547.893C431.036 547.948 430.869 548.227 430.925 548.394C430.98 548.561 431.147 548.672 431.203 548.784C431.203 548.839 431.203 548.895 431.147 548.951C430.869 549.062 430.702 549.173 430.59 549.341C430.145 550.065 430.535 550.677 429.866 551.513C429.755 551.68 429.699 551.902 429.532 552.07C429.309 552.404 429.588 552.905 429.588 553.239C429.755 554.409 428.418 553.796 428.14 554.353C427.917 554.576 427.917 554.854 427.973 555.188C427.973 555.355 428.029 556.246 428.14 556.302C428.363 556.469 428.474 556.692 428.808 556.636C429.087 556.581 429.477 556.581 429.644 556.302C429.699 556.191 429.866 556.024 429.866 555.857C429.922 555.634 429.755 555.467 429.866 555.244C430.033 554.91 430.256 554.576 430.423 554.242C430.646 553.852 430.98 554.019 431.259 553.796C431.481 553.573 431.537 553.072 431.871 553.35C432.15 553.573 432.428 553.852 432.762 554.074C432.818 554.13 432.985 554.353 433.097 554.798C433.152 554.91 433.097 555.411 433.208 555.411C433.319 555.467 433.486 554.966 433.542 554.854C433.653 554.687 433.542 554.297 433.653 554.242C433.709 554.186 433.932 554.242 433.876 554.019C433.876 553.963 433.598 553.74 433.598 553.74C433.598 553.74 432.929 553.183 432.929 553.128C432.762 552.961 432.261 552.682 432.428 552.348C432.707 551.902 432.874 552.125 433.152 552.348C433.431 552.571 433.709 552.849 433.988 553.072C434.266 553.295 434.378 553.685 434.322 554.074C434.266 554.409 434.767 555.077 434.99 554.91C435.269 554.743 434.934 554.019 435.213 553.796C435.38 553.629 435.826 553.518 435.714 553.128C435.714 553.016 435.658 552.849 435.658 552.682C435.658 552.515 435.826 552.404 435.881 552.237C435.993 552.07 436.215 551.401 436.382 551.346C436.605 551.234 436.995 551.847 437.218 551.401C437.329 551.234 437.441 550.844 437.775 550.789C438.109 550.733 438.22 550.844 438.554 551.067C438.777 551.234 439.056 551.401 439.111 551.735C439.167 552.069 439.223 552.682 438.833 552.794C438.61 552.961 438.22 552.905 437.998 552.961C437.719 553.016 437.552 552.571 437.274 552.626C437.051 552.682 436.717 552.626 436.661 552.905C436.438 553.518 436.16 553.573 435.937 553.963C435.826 554.186 435.77 554.798 435.937 554.966C436.215 555.244 436.717 555.021 437.051 554.91C437.886 554.743 438.276 555.745 438.165 556.414C438.109 556.803 436.828 557.082 436.55 556.97C436.215 556.859 436.104 556.525 435.77 556.636C435.491 556.692 435.046 556.692 434.823 557.026C434.656 557.305 434.489 557.75 434.21 557.806C433.932 557.862 433.431 558.084 433.208 557.862C432.985 557.694 432.707 557.472 432.484 557.249C432.15 556.97 432.317 556.469 431.983 556.191C431.704 555.968 431.426 556.079 431.147 556.191C430.869 556.246 430.423 556.246 430.201 556.469C429.978 556.692 429.922 557.138 429.644 557.36C429.421 557.583 428.975 557.583 428.641 557.639C428.14 557.75 427.694 558.808 427.75 559.365C427.861 560.201 427.472 560.646 427.082 561.314C426.803 561.76 426.246 562.484 426.358 563.097C426.469 563.876 426.581 564.656 426.692 565.436C426.748 565.993 427.639 566.438 427.917 566.717C428.196 566.995 428.53 567.218 428.808 567.496C428.975 567.663 429.198 567.942 429.477 567.886C429.922 567.886 430.757 567.719 431.036 567.218C431.203 566.884 431.37 566.605 431.704 566.494C431.983 566.438 432.373 566.271 432.651 566.494C433.097 566.884 433.486 567.162 433.598 567.83L433.988 570.559C434.043 571.005 434.043 572.174 434.377 572.453C434.545 572.676 434.823 572.787 435.046 573.066C435.157 573.288 435.213 573.567 435.213 573.845C435.324 574.792 435.491 575.683 435.603 576.63C435.714 577.354 435.77 577.577 436.271 578.022C436.661 578.356 437.218 579.08 437.719 578.969C438.387 578.802 439.056 578.69 439.724 578.523C440.225 578.412 440.559 577.465 440.838 576.964C441.005 576.686 440.894 576.407 440.894 576.129L440.671 574.681C440.559 573.957 441.116 573.344 441.395 572.787C441.506 572.564 441.729 572.286 441.673 571.952C441.618 571.562 441.562 571.116 441.506 570.726C441.45 570.392 441.45 570.114 441.228 569.891C440.949 569.668 440.671 569.501 440.615 569C440.559 568.666 440.448 568.276 440.615 567.942L441.228 566.828C441.395 566.55 441.506 566.16 441.84 566.048C442.174 565.993 442.397 565.436 442.564 565.102C442.731 564.767 442.954 564.489 442.898 564.043C442.898 563.876 442.787 562.818 442.676 562.762C442.564 562.707 442.174 563.542 442.119 563.654C441.896 564.043 441.618 564.043 441.283 564.099C440.782 564.21 440.058 563.319 439.668 562.985C439.501 562.818 439.223 562.651 439.167 562.373C439.111 561.983 439.056 561.593 439 561.147C438.889 560.535 437.998 560.034 437.608 559.699C437.385 559.477 437.329 559.198 437.329 558.864C437.274 558.53 437.106 557.862 437.274 557.527C437.441 557.082 437.775 557.193 437.942 557.639C438.109 557.973 438.109 558.474 438.165 558.864C438.276 559.644 438.944 559.755 439.334 560.256C439.835 560.702 439.446 561.871 439.947 562.317C440.17 562.54 440.392 562.818 440.671 562.93C440.894 563.041 441.395 562.93 441.618 562.762C441.785 562.651 441.896 562.373 442.007 562.15C442.23 561.76 442.453 561.314 442.731 560.925C443.066 560.312 443.511 559.811 443.288 559.031C443.121 558.029 442.119 558.697 441.673 558.307C441.395 558.084 441.116 557.806 440.838 557.583C440.726 557.472 440.559 557.36 440.671 557.193C440.726 557.026 440.949 556.692 441.061 556.859C441.283 556.915 441.562 557.305 441.785 557.472C442.063 557.694 442.453 557.472 442.731 557.416C443.01 557.36 443.344 557.193 443.567 557.416C443.845 557.694 444.068 557.639 444.402 557.583L445.349 557.36C445.627 557.305 445.962 557.694 446.184 557.862C446.407 558.029 446.686 558.196 446.741 558.53C446.797 558.975 446.853 559.421 446.908 559.866C446.964 560.145 446.964 560.479 447.187 560.646C447.465 560.925 447.744 561.147 448.022 561.37C448.301 561.593 448.412 561.76 448.635 561.37C448.858 560.925 448.802 560.646 448.69 560.145C448.579 559.421 449.247 558.697 449.526 558.14C449.637 557.917 449.749 557.583 449.971 557.416C450.194 557.193 450.807 557.082 451.03 557.249C451.308 557.416 451.531 557.694 451.754 557.862C451.809 557.917 451.921 558.029 452.032 558.084C452.255 558.251 452.366 558.14 452.589 558.14C452.867 558.14 453.146 558.363 453.313 558.53C453.536 558.53 453.87 558.808 453.87 558.808Z" fill="#1814A4"/>
<mask id="mask1_1_14" style="mask-type:luminance" maskUnits="userSpaceOnUse" x="556" y="616" width="80" height="80">
<path d="M556 656C556 633.909 573.909 616 596 616C618.091 616 636 633.909 636 656C636 678.091 618.091 696 596 696C573.909 696 556 678.091 556 656Z" fill="white"/>
</mask>
<g mask="url(#mask1_1_14)">
<path d="M596 696C618.091 696 636 678.091 636 656C636 633.909 618.091 616 596 616C573.909 616 556 633.909 556 656C556 678.091 573.909 696 596 696Z" fill="white"/>
<path d="M574.443 658.496C574.443 658.885 574.361 659.245 574.195 659.575C574.03 659.906 573.8 660.185 573.505 660.416C573.209 660.647 572.86 660.826 572.453 660.955C572.046 661.085 571.6 661.149 571.117 661.149C570.539 661.149 570.021 661.071 569.561 660.912C569.104 660.756 568.644 660.494 568.185 660.128L568.945 658.893C569.31 659.199 569.639 659.422 569.934 659.563C570.228 659.704 570.529 659.774 570.836 659.774C571.213 659.774 571.516 659.679 571.747 659.483C571.977 659.287 572.091 659.026 572.091 658.695C572.091 658.554 572.069 658.419 572.028 658.296C571.987 658.173 571.911 658.046 571.8 657.915C571.688 657.786 571.536 657.643 571.34 657.491C571.147 657.338 570.897 657.149 570.589 656.924C570.355 656.758 570.124 656.587 569.901 656.411C569.676 656.234 569.475 656.046 569.291 655.845C569.109 655.643 568.963 655.42 568.849 655.172C568.738 654.923 568.681 654.64 568.681 654.323C568.681 653.958 568.758 653.623 568.91 653.322C569.062 653.021 569.272 652.765 569.536 652.554C569.8 652.341 570.116 652.177 570.488 652.059C570.857 651.942 571.26 651.882 571.696 651.882C572.155 651.882 572.599 651.942 573.029 652.065C573.46 652.188 573.856 652.366 574.222 652.601L573.532 653.711C573.061 653.381 572.566 653.217 572.046 653.217C571.729 653.217 571.465 653.299 571.26 653.465C571.053 653.631 570.952 653.837 570.952 654.085C570.952 654.322 571.041 654.535 571.225 654.722C571.407 654.912 571.72 655.176 572.168 655.518C572.617 655.849 572.991 656.138 573.286 656.386C573.581 656.634 573.816 656.867 573.988 657.086C574.16 657.305 574.277 657.526 574.344 657.751C574.41 657.978 574.443 658.224 574.443 658.496ZM582.262 656.414C582.262 656.756 582.226 657.125 582.154 657.52C582.084 657.915 581.961 658.283 581.789 658.617C581.617 658.953 581.392 659.231 581.112 659.448C580.833 659.667 580.481 659.774 580.053 659.774C579.341 659.774 578.78 659.491 578.369 658.924C577.961 658.357 577.756 657.579 577.756 656.587C577.756 655.573 577.963 654.767 578.379 654.171C578.794 653.575 579.359 653.278 580.07 653.278C580.747 653.278 581.281 653.559 581.672 654.118C582.066 654.682 582.262 655.446 582.262 656.414ZM584.733 656.324C584.733 655.663 584.639 655.063 584.449 654.521C584.26 653.978 583.992 653.513 583.644 653.123C583.296 652.734 582.881 652.431 582.404 652.213C581.925 651.995 581.397 651.886 580.819 651.886C580.181 651.886 579.62 652.007 579.136 652.248C578.651 652.49 578.203 652.87 577.79 653.388L577.779 652.098H575.505V665.357H577.777V659.754C578.002 660.014 578.217 660.233 578.424 660.409C578.632 660.587 578.841 660.731 579.054 660.843C579.267 660.955 579.492 661.035 579.728 661.082C579.965 661.129 580.219 661.152 580.491 661.152C581.093 661.152 581.656 661.031 582.176 660.79C582.696 660.548 583.146 660.21 583.525 659.774C583.905 659.338 584.2 658.827 584.413 658.245C584.628 657.659 584.733 657.02 584.733 656.324ZM585.744 660.934H588.076V647.958H585.744V660.934ZM598.036 660.938V652.085H595.703V656.85C595.703 657.274 595.686 657.603 595.65 657.833C595.615 658.064 595.555 658.273 595.473 658.463C595.142 659.194 594.538 659.562 593.66 659.562C592.974 659.562 592.493 659.313 592.221 658.817C592.114 658.629 592.04 658.416 591.998 658.179C591.957 657.943 591.936 657.601 591.936 657.151V652.087H589.603V657.118C589.603 657.46 589.607 657.749 589.613 657.986C589.619 658.222 589.634 658.431 589.658 658.615C589.682 658.799 589.709 658.961 589.738 659.102C589.768 659.243 589.812 659.379 589.871 659.509C590.084 660.052 590.428 660.463 590.908 660.74C591.386 661.018 591.973 661.155 592.669 661.155C593.294 661.155 593.844 661.045 594.317 660.828C594.79 660.609 595.25 660.253 595.699 659.757L595.705 660.942H598.036V660.938ZM608.093 660.934V655.915C608.093 655.573 608.089 655.282 608.083 655.041C608.077 654.799 608.063 654.591 608.038 654.414C608.014 654.238 607.985 654.081 607.95 653.946C607.914 653.811 607.873 653.678 607.826 653.547C607.613 653.018 607.269 652.609 606.79 652.32C606.311 652.03 605.725 651.886 605.026 651.886C604.401 651.886 603.852 651.995 603.378 652.214C602.905 652.433 602.446 652.791 601.996 653.285L601.992 652.101H599.642V660.934H601.994V656.163C601.994 655.751 602.01 655.43 602.039 655.201C602.069 654.973 602.125 654.758 602.209 654.556C602.362 654.202 602.597 653.934 602.911 653.753C603.226 653.571 603.601 653.479 604.039 653.479C604.725 653.479 605.206 653.727 605.478 654.22C605.584 654.407 605.658 654.621 605.699 654.855C605.74 655.09 605.762 655.432 605.762 655.879V660.931H608.092V660.934H608.093ZM617.749 660.351L614.194 655.933L617.2 652.715L615.432 651.954L612.304 655.577H612.056V647.96H609.704V660.936H612.056V656.234L615.573 661.111L617.749 660.351ZM626.838 657.18V655.733L619.766 652.185V653.774L625.246 656.441L619.766 659.143V660.697L626.838 657.18ZM620.45 649.894C620.016 649.894 619.665 650.247 619.665 650.687C619.665 651.135 620.017 651.485 620.45 651.485C620.888 651.485 621.234 651.135 621.234 650.687C621.234 650.246 620.888 649.894 620.454 649.894H620.45ZM620.454 650.017C620.806 650.017 621.09 650.316 621.09 650.691C621.09 651.065 620.808 651.366 620.454 651.362C620.101 651.362 619.815 651.065 619.815 650.687C619.815 650.315 620.101 650.017 620.45 650.017H620.454ZM620.304 650.767H620.402C620.515 650.767 620.572 650.81 620.592 650.922C620.609 651.039 620.631 651.119 620.652 651.147H620.801C620.787 651.119 620.766 651.065 620.744 650.928C620.727 650.797 620.674 650.726 620.596 650.713V650.705C620.691 650.678 620.768 650.605 620.768 650.49C620.768 650.406 620.738 650.345 620.685 650.306C620.633 650.267 620.545 650.24 620.41 650.24C620.304 650.24 620.234 650.25 620.16 650.261V651.147H620.3V650.768L620.304 650.767ZM620.304 650.359C620.328 650.355 620.361 650.351 620.406 650.351C620.564 650.351 620.621 650.429 620.621 650.505C620.621 650.615 620.521 650.658 620.406 650.658H620.304V650.359Z" fill="#1814A4"/>
</g>
<path d="M586.873 86.3128H592.572L589.562 81.4437L584.028 90.238H581.512L588.242 79.6871C588.389 79.4765 588.584 79.3043 588.81 79.1848C589.037 79.0652 589.289 79.0019 589.546 79C589.802 78.9982 590.055 79.0579 590.284 79.1742C590.512 79.2905 590.709 79.4599 590.859 79.6684L597.608 90.238H595.092L593.906 88.2717H588.141L586.885 86.3128M613.032 88.2717V79.1065H610.893V89.1743C610.892 89.3142 610.92 89.4527 610.975 89.5815C611.03 89.7103 611.11 89.8266 611.211 89.9234C611.312 90.0271 611.433 90.1095 611.566 90.1654C611.7 90.2214 611.844 90.2499 611.988 90.2493H621.71L622.977 88.2829H613.02M577.672 86.6349C578.668 86.6349 579.624 86.2383 580.329 85.5324C581.034 84.8265 581.429 83.869 581.429 82.8707C581.429 81.8724 581.034 80.915 580.329 80.209C579.624 79.5031 578.668 79.1065 577.672 79.1065H568.324V90.238H570.459V81.0766H577.541C578.018 81.0766 578.475 81.2665 578.813 81.6043C579.15 81.9422 579.339 82.4004 579.339 82.8782C579.339 83.356 579.15 83.8142 578.813 84.1521C578.475 84.49 578.018 84.6798 577.541 84.6798H571.517L577.896 90.238H580.996L576.711 86.6349H577.672ZM555.193 90.238H561.65C563.098 90.2004 564.474 89.5977 565.485 88.5583C566.496 87.519 567.062 86.1253 567.062 84.6742C567.062 83.223 566.496 81.8293 565.485 80.79C564.474 79.7506 563.098 79.1479 561.65 79.1103H555.193C554.451 79.091 553.713 79.2207 553.023 79.4916C552.332 79.7626 551.702 80.1693 551.171 80.6879C550.64 81.2064 550.218 81.8263 549.929 82.5109C549.641 83.1956 549.493 83.9311 549.493 84.6742C549.493 85.4172 549.641 86.1527 549.929 86.8374C550.218 87.522 550.64 88.1419 551.171 88.6604C551.702 89.179 552.332 89.5857 553.023 89.8567C553.713 90.1276 554.451 90.2573 555.193 90.238ZM561.504 88.2791H555.335C554.402 88.249 553.516 87.8564 552.867 87.1843C552.217 86.5122 551.854 85.6134 551.854 84.6779C551.854 83.7424 552.217 82.8436 552.867 82.1715C553.516 81.4994 554.402 81.1068 555.335 81.0766H561.504C561.986 81.0611 562.466 81.1427 562.916 81.3167C563.366 81.4906 563.776 81.7534 564.122 82.0894C564.469 82.4253 564.744 82.8276 564.932 83.2723C565.12 83.7169 565.217 84.195 565.217 84.6779C565.217 85.1608 565.12 85.6389 564.932 86.0835C564.744 86.5282 564.469 86.9305 564.122 87.2664C563.776 87.6024 563.366 87.8651 562.916 88.0391C562.466 88.2131 561.986 88.2947 561.504 88.2791ZM602.069 90.238H608.661L609.909 88.2791H602.215C601.733 88.2947 601.253 88.2131 600.803 88.0391C600.353 87.8651 599.943 87.6024 599.597 87.2664C599.25 86.9305 598.975 86.5282 598.787 86.0835C598.599 85.6389 598.502 85.1608 598.502 84.6779C598.502 84.195 598.599 83.7169 598.787 83.2723C598.975 82.8276 599.25 82.4253 599.597 82.0894C599.943 81.7534 600.353 81.4906 600.803 81.3167C601.253 81.1427 601.733 81.0611 602.215 81.0766H608.477L609.741 79.1103H602.069C601.327 79.091 600.589 79.2207 599.899 79.4916C599.208 79.7626 598.578 80.1693 598.047 80.6879C597.516 81.2064 597.094 81.8263 596.805 82.5109C596.517 83.1956 596.368 83.9311 596.368 84.6742C596.368 85.4172 596.517 86.1527 596.805 86.8374C597.094 87.522 597.516 88.1419 598.047 88.6604C598.578 89.179 599.208 89.5857 599.899 89.8567C600.589 90.1276 601.327 90.2573 602.069 90.238ZM628.193 88.2791C627.41 88.2794 626.648 88.0235 626.023 87.5503C625.398 87.0771 624.944 86.4124 624.731 85.6573H633.862L635.118 83.6947H624.731C624.944 82.9393 625.397 82.2743 626.022 81.801C626.647 81.3277 627.41 81.072 628.193 81.0729H634.46L635.712 79.1065H628.047C626.599 79.1442 625.223 79.7469 624.212 80.7862C623.201 81.8255 622.635 83.2193 622.635 84.6704C622.635 86.1215 623.201 87.5153 624.212 88.5546C625.223 89.5939 626.599 90.1966 628.047 90.2343H634.639L635.892 88.2754H628.189" fill="white"/>
<path d="M566.85 110.873H564.985V101.8H570.105V103.375H566.85V105.714H569.88V107.289H566.85V110.873Z" fill="white"/>
<path d="M571.23 110.873V101.8H573.12V109.284H576.75V110.873H571.23Z" fill="white"/>
<path d="M582.827 110.873H577.682V101.8H582.827V103.375H579.572V105.371H582.602V106.946H579.572V109.284H582.827V110.873Z" fill="white"/>
<path d="M591.284 110.873H589.119L587.041 107.442L584.963 110.873H582.934L585.901 106.197L583.122 101.8H585.213L587.141 105.066L589.031 101.8H591.072L588.267 106.298L591.284 110.873Z" fill="white"/>
<path d="M595.334 103.274C594.975 103.274 594.654 103.346 594.37 103.49C594.094 103.634 593.861 103.841 593.669 104.113C593.477 104.375 593.331 104.697 593.231 105.078C593.139 105.46 593.093 105.887 593.093 106.362C593.093 107.006 593.168 107.556 593.318 108.014C593.477 108.463 593.723 108.806 594.057 109.043C594.391 109.28 594.816 109.399 595.334 109.399C595.701 109.399 596.064 109.356 596.423 109.272C596.79 109.187 597.186 109.068 597.612 108.916V110.53C597.22 110.691 596.832 110.809 596.448 110.886C596.064 110.962 595.634 111 595.158 111C594.24 111 593.481 110.809 592.88 110.428C592.288 110.038 591.849 109.496 591.566 108.802C591.282 108.098 591.14 107.281 591.14 106.349C591.14 105.663 591.232 105.036 591.415 104.468C591.599 103.892 591.866 103.397 592.217 102.982C592.575 102.566 593.014 102.245 593.531 102.016C594.057 101.787 594.658 101.673 595.334 101.673C595.776 101.673 596.218 101.732 596.661 101.851C597.111 101.961 597.541 102.113 597.95 102.308L597.337 103.871C597.003 103.71 596.665 103.57 596.323 103.452C595.989 103.333 595.659 103.274 595.334 103.274Z" fill="white"/>
<path d="M606.159 107.671C606.159 108.298 606.021 108.865 605.746 109.373C605.479 109.873 605.07 110.271 604.519 110.568C603.976 110.856 603.288 111 602.453 111C601.268 111 600.367 110.695 599.749 110.085C599.132 109.467 598.823 108.653 598.823 107.645V101.8H600.713V107.353C600.713 108.098 600.863 108.624 601.164 108.929C601.464 109.234 601.911 109.386 602.503 109.386C602.921 109.386 603.259 109.314 603.517 109.17C603.776 109.026 603.964 108.802 604.081 108.497C604.206 108.192 604.269 107.806 604.269 107.34V101.8H606.159V107.671Z" fill="white"/>
<path d="M610.501 101.8C611.294 101.8 611.957 101.876 612.492 102.028C613.034 102.173 613.439 102.414 613.706 102.753C613.981 103.083 614.119 103.532 614.119 104.1C614.119 104.439 614.065 104.748 613.956 105.027C613.848 105.307 613.689 105.536 613.48 105.714C613.28 105.892 613.034 106.006 612.742 106.057V106.12C613.042 106.18 613.314 106.286 613.556 106.438C613.798 106.59 613.99 106.811 614.131 107.099C614.273 107.387 614.344 107.768 614.344 108.242C614.344 108.793 614.211 109.268 613.944 109.666C613.685 110.055 613.309 110.356 612.817 110.568C612.325 110.771 611.74 110.873 611.064 110.873H607.722V101.8H610.501ZM610.714 105.396C611.265 105.396 611.644 105.307 611.853 105.129C612.07 104.951 612.179 104.693 612.179 104.354C612.179 104.007 612.053 103.757 611.803 103.604C611.553 103.452 611.156 103.375 610.614 103.375H609.612V105.396H610.714ZM609.612 106.921V109.284H610.852C611.419 109.284 611.816 109.174 612.041 108.954C612.266 108.725 612.379 108.425 612.379 108.052C612.379 107.823 612.329 107.624 612.229 107.455C612.137 107.285 611.974 107.154 611.74 107.061C611.507 106.967 611.19 106.921 610.789 106.921H609.612Z" fill="white"/>
<path d="M620.652 110.873H615.507V101.8H620.652V103.375H617.397V105.371H620.427V106.946H617.397V109.284H620.652V110.873Z" fill="white"/>
<path d="M538 95.8739H648V96.7072H538V95.8739Z" fill="white"/>
</g>
<defs>
<clipPath id="clip0_1_14">
<rect width="705" height="751" fill="white"/>
</clipPath>
</defs>
</svg>
