<svg width="9" height="18" viewBox="0 0 9 18" fill="none" xmlns="http://www.w3.org/2000/svg">
<path d="M8.38076 5.0668C8.46318 5.0668 8.52912 5.09976 8.57858 5.1657C8.64452 5.21516 8.67749 5.2811 8.67749 5.36352V7.31699C8.67749 7.39941 8.64452 7.47359 8.57858 7.53953C8.52912 7.58899 8.46318 7.61372 8.38076 7.61372H5.93276C5.85034 7.61372 5.80912 7.65493 5.80912 7.73735V17.4305C5.80912 17.5129 5.77615 17.5871 5.71021 17.653C5.66076 17.7025 5.59482 17.7272 5.5124 17.7272H3.23749C3.15506 17.7272 3.08088 17.7025 3.01494 17.653C2.96549 17.5871 2.94076 17.5129 2.94076 17.4305V7.73735C2.94076 7.65493 2.89955 7.61372 2.81712 7.61372H1.28403C1.20161 7.61372 1.12743 7.58899 1.06149 7.53953C1.01203 7.47359 0.987305 7.39941 0.987305 7.31699V5.36352C0.987305 5.2811 1.01203 5.21516 1.06149 5.1657C1.12743 5.09976 1.20161 5.0668 1.28403 5.0668H2.81712C2.89955 5.0668 2.94076 5.02558 2.94076 4.94316V4.49807C2.94076 3.42655 3.08088 2.6023 3.36112 2.02533C3.64137 1.43187 4.10294 1.01151 4.74585 0.764232C5.38876 0.516959 6.29543 0.401565 7.46585 0.418049H8.3313C8.41373 0.418049 8.47967 0.451019 8.52912 0.516959C8.59506 0.566414 8.62803 0.632353 8.62803 0.714778V2.44569C8.62803 2.52812 8.59506 2.6023 8.52912 2.66824C8.47967 2.7177 8.41373 2.74242 8.3313 2.74242H7.6884C6.97955 2.74242 6.485 2.88254 6.20476 3.16279C5.941 3.44303 5.80912 3.95406 5.80912 4.69588V4.94316C5.80912 5.02558 5.85034 5.0668 5.93276 5.0668H8.38076Z" fill="#42454A"/>
</svg>
