<svg width="18" height="17" viewBox="0 0 18 17" fill="none" xmlns="http://www.w3.org/2000/svg">
<path d="M14.7882 0.144775H3.13541C1.81977 0.144775 0.817383 1.14717 0.817383 2.4628V14.1156C0.817383 15.4312 1.81977 16.4336 3.13541 16.4336H14.7882C16.1038 16.4336 17.1062 15.4312 17.1062 14.1156V2.4628C17.1062 1.14717 16.1038 0.144775 14.7882 0.144775ZM8.9618 13.1758C11.6557 13.1758 13.8485 11.0458 13.8485 8.47714C13.8485 8.3056 13.8389 8.12447 13.8197 7.945C13.7778 7.55318 14.0674 7.16151 14.4615 7.16151C14.7803 7.16151 15.0388 7.41998 15.0388 7.73882V13.8023C15.0388 14.1156 14.7882 14.4288 14.4123 14.4288H3.51131C3.19806 14.4288 2.88481 14.1782 2.88481 13.8023V7.71842C2.88481 7.37624 3.1622 7.09886 3.50438 7.09886C3.916 7.09886 4.21154 7.49448 4.16614 7.9036C4.14725 8.07389 4.1378 8.24419 4.1378 8.41449C4.07515 11.0458 6.26788 13.1758 8.9618 13.1758ZM8.9618 11.2964C7.20762 11.2964 5.82933 9.91808 5.82933 8.22655C5.82933 6.53501 7.20762 5.15673 8.9618 5.15673C10.716 5.15673 12.0943 6.53501 12.0943 8.22655C12.0943 9.98073 10.716 11.2964 8.9618 11.2964ZM14.9761 4.59288C14.9761 4.96878 14.6629 5.28202 14.287 5.28202H12.5328C12.1569 5.28202 11.8437 4.96878 11.8437 4.59288V2.90135C11.8437 2.52545 12.1569 2.2122 12.5328 2.2122H14.287C14.6629 2.2122 14.9761 2.52545 14.9761 2.90135V4.59288Z" fill="#42454A"/>
</svg>
