<svg width="18" height="14" viewBox="0 0 18 14" fill="none" xmlns="http://www.w3.org/2000/svg">
<path d="M17.2693 2.15801C16.6876 2.40006 16.0227 2.56143 15.3579 2.64212C16.0227 2.2387 16.6045 1.59322 16.8538 0.867057C16.1889 1.27048 15.5241 1.51253 14.693 1.6739C14.1113 1.02843 13.1971 0.625 12.2829 0.625C10.4546 0.625 8.95867 2.07733 8.95867 3.85239C8.95867 4.09445 8.95868 4.33649 9.04178 4.57855C6.29927 4.41718 3.80608 3.12623 2.14395 1.18979C1.89463 1.6739 1.72842 2.23869 1.72842 2.80349C1.72842 3.93307 2.31017 4.90129 3.22434 5.46609C2.64259 5.46609 2.14395 5.30472 1.72842 5.06266C1.72842 6.59567 2.89191 7.96731 4.38782 8.20936C4.1385 8.29005 3.80608 8.29005 3.47366 8.29005C3.22434 8.29005 3.05813 8.29005 2.80881 8.20936C3.22434 9.50032 4.47094 10.4685 5.96685 10.4685C4.80336 11.3561 3.39055 11.8402 1.81153 11.8402C1.56221 11.8402 1.31289 11.8402 0.980469 11.7595C2.47638 12.647 4.22161 13.2118 6.13306 13.2118C12.2829 13.2118 15.6072 8.29005 15.6072 4.01376V3.61033C16.272 3.36828 16.8538 2.80348 17.2693 2.15801Z" fill="#42454A"/>
</svg>
