<svg width="150" height="46" viewBox="0 0 150 46" fill="none" xmlns="http://www.w3.org/2000/svg">
<g clip-path="url(#clip0_1_497)">
<g clip-path="url(#clip1_1_497)">
<path d="M51.1809 41.9243L51.8809 43.4275L52.5808 41.9243H53.4043L52.2514 44.0956V45.2229H51.5103V44.0956L50.3574 41.9243H51.1809Z" fill="white"/>
<path d="M56.4513 45.2647C56.2042 45.2647 55.9983 45.2229 55.7925 45.1394C55.5866 45.0559 55.4219 44.9306 55.2984 44.7636C55.1748 44.5966 55.0513 44.4296 54.969 44.2208C54.8866 44.012 54.8454 43.8033 54.8454 43.5945C54.8454 43.3857 54.8866 43.177 54.969 42.9682C55.0513 42.7594 55.1748 42.5924 55.2984 42.4254C55.4631 42.2584 55.6278 42.1331 55.8336 42.0496C56.0395 41.9661 56.2454 41.9243 56.4924 41.9243C56.7395 41.9243 56.9454 41.9661 57.1512 42.0496C57.3571 42.1331 57.5218 42.2584 57.6453 42.4254C57.7689 42.5924 57.8924 42.7594 57.9747 42.9682C58.0571 43.177 58.0983 43.3857 58.0983 43.5945C58.0983 43.8033 58.0571 44.012 57.9747 44.2208C57.8924 44.4296 57.7689 44.5966 57.6453 44.7636C57.5218 44.9306 57.3159 45.0559 57.1101 45.1394C56.9042 45.2229 56.6571 45.2647 56.4513 45.2647ZM55.5866 43.5945C55.5866 43.7198 55.5866 43.845 55.6278 43.9703C55.6689 44.0956 55.7101 44.1791 55.7925 44.3043C55.8748 44.3878 55.9572 44.4713 56.0807 44.5131C56.2042 44.5549 56.3277 44.5966 56.4513 44.5966C56.616 44.5966 56.7395 44.5549 56.8218 44.5131C56.9454 44.4713 57.0277 44.3878 57.0689 44.3043C57.1512 44.2208 57.1924 44.0956 57.2336 43.9703C57.2748 43.845 57.2748 43.7198 57.2748 43.5945C57.2748 43.4692 57.2748 43.344 57.2336 43.2187C57.1924 43.0935 57.1512 43.0099 57.0689 42.8847C56.9865 42.8012 56.9042 42.7177 56.7807 42.6759C56.6571 42.6342 56.5336 42.5924 56.4101 42.5924C56.2866 42.5924 56.163 42.6342 56.0395 42.6759C55.916 42.7177 55.8336 42.8012 55.7925 42.8847C55.7101 42.9682 55.6689 43.0935 55.6278 43.2187C55.5866 43.344 55.5866 43.4692 55.5866 43.5945Z" fill="white"/>
<path d="M61.1864 44.5966C61.3099 44.5966 61.4334 44.5549 61.5158 44.5131C61.5981 44.4713 61.6805 44.3878 61.7216 44.3043C61.7628 44.2208 61.804 44.0956 61.8452 44.012C61.8863 43.8868 61.8864 43.7615 61.8864 43.6363V41.9243H62.6275V43.6363C62.6275 43.845 62.5863 44.0956 62.5451 44.2626C62.504 44.4713 62.4216 44.6384 62.2981 44.7636C62.1746 44.9306 62.051 45.0141 61.8452 45.0977C61.6805 45.1812 61.4334 45.2229 61.1864 45.2229C60.9393 45.2229 60.6923 45.1812 60.5276 45.0977C60.3629 45.0141 60.1982 44.8889 60.0747 44.7219C59.9511 44.5549 59.8688 44.3878 59.8276 44.1791C59.7864 43.9703 59.7453 43.7615 59.7453 43.5527V41.8408H60.4864V43.5527C60.4864 43.678 60.4864 43.8033 60.5276 43.9285C60.5688 44.0538 60.6099 44.1373 60.6511 44.2208C60.6923 44.3043 60.7746 44.3878 60.857 44.4296C60.9393 44.5549 61.0629 44.5966 61.1864 44.5966Z" fill="white"/>
<path d="M64.4804 45.2647V41.9661H65.9627C66.1274 41.9661 66.2509 42.0078 66.3744 42.0496C66.4979 42.1331 66.6215 42.2166 66.7038 42.3001C66.7862 42.4254 66.8685 42.5089 66.9097 42.6759C66.9509 42.8012 66.992 42.9264 66.992 43.0934C66.992 43.177 66.992 43.3022 66.9509 43.3857C66.9097 43.4692 66.9097 43.5527 66.8273 43.6363C66.7862 43.7198 66.745 43.8033 66.6626 43.845C66.5803 43.9285 66.5391 43.9703 66.4568 44.012L67.1567 45.2229H66.2921L65.6744 44.1373H65.1803V45.2229H64.4804V45.2647ZM65.2627 43.511H65.9627C66.045 43.511 66.1274 43.4692 66.2097 43.3857C66.2921 43.3022 66.2921 43.177 66.2921 43.0517C66.2921 42.9264 66.2509 42.8012 66.1685 42.7177C66.0862 42.6342 66.0038 42.5924 65.9215 42.5924H65.2627V43.511Z" fill="white"/>
<path d="M71.233 45.2647V41.9661H71.9742V45.2647H71.233Z" fill="white"/>
<path d="M74.6506 43.344V45.2229H73.9094V41.9243H74.4859L76.0093 43.8868V41.9243H76.7505V45.2229H76.1328L74.6506 43.344Z" fill="white"/>
<path d="M80.168 42.6342V45.2647H79.4268V42.6342H78.4386V41.9661H81.1974V42.6342H80.168Z" fill="white"/>
<path d="M85.109 44.5966V45.2647H82.8032V41.9661H85.0678V42.6342H83.5855V43.2605H84.8619V43.8868H83.5855V44.5966H85.109Z" fill="white"/>
<path d="M89.0618 44.9306C88.8147 45.1812 88.5265 45.2647 88.1971 45.2647C87.9912 45.2647 87.7853 45.2229 87.5795 45.1394C87.3736 45.0559 87.2089 44.9306 87.0854 44.8054C86.9618 44.6384 86.8383 44.4713 86.756 44.2626C86.6736 44.0538 86.6324 43.8033 86.6324 43.5527C86.6324 43.344 86.6736 43.0934 86.756 42.9264C86.8383 42.7177 86.9618 42.5506 87.0854 42.3836C87.2501 42.2166 87.4148 42.1331 87.6206 42.0078C87.8265 41.9243 88.0324 41.8826 88.2794 41.8826C88.5677 41.8826 88.8559 41.9661 89.0618 42.0913C89.2676 42.2166 89.4735 42.3836 89.5559 42.6342L88.9794 43.0517C88.8971 42.8847 88.8147 42.8012 88.65 42.7177C88.5265 42.6342 88.3618 42.5924 88.1971 42.5924C88.0736 42.5924 87.95 42.6342 87.8677 42.6759C87.7853 42.7177 87.6618 42.8012 87.6206 42.8847C87.5383 42.9682 87.4971 43.0935 87.4559 43.2187C87.4148 43.344 87.4148 43.4692 87.4148 43.5945C87.4148 43.7198 87.4559 43.8868 87.4971 43.9703C87.5383 44.0538 87.5795 44.1791 87.6618 44.3043C87.7442 44.3878 87.8265 44.4713 87.95 44.5131C88.0736 44.5549 88.1559 44.5966 88.3206 44.5966C88.6088 44.5966 88.8971 44.4713 89.1029 44.1791V44.0956H88.4853V43.5527H89.7617V45.2647H89.1441V44.9306H89.0618Z" fill="white"/>
<path d="M91.4911 45.2647V41.9661H92.9734C93.1381 41.9661 93.2616 42.0078 93.3851 42.0496C93.5086 42.1331 93.6322 42.2166 93.7145 42.3001C93.7969 42.4254 93.8792 42.5089 93.9204 42.6759C93.9616 42.8012 94.0027 42.9264 94.0027 43.0934C94.0027 43.177 94.0027 43.3022 93.9616 43.3857C93.9204 43.4692 93.9204 43.5527 93.838 43.6363C93.7969 43.7198 93.7557 43.8033 93.6733 43.845C93.591 43.9285 93.5498 43.9703 93.4675 44.012L94.1674 45.2229H93.3028L92.6851 44.1373H92.2322V45.2229H91.4911V45.2647ZM92.2322 43.511H92.9322C93.0145 43.511 93.0969 43.4692 93.1792 43.3857C93.2616 43.3022 93.2616 43.177 93.2616 43.0517C93.2616 42.9264 93.2204 42.8012 93.1381 42.7177C93.0557 42.6342 92.9734 42.5924 92.891 42.5924H92.2322V43.511Z" fill="white"/>
<path d="M96.7203 41.9243H97.4203L98.6143 45.2229H97.832L97.585 44.5131H96.5556L96.3085 45.2647H95.5262L96.7203 41.9243ZM97.4614 43.9703L97.0909 42.8012L96.7203 43.9703H97.4614Z" fill="white"/>
<path d="M101.702 42.6342V45.2647H100.961V42.6342H99.9731V41.9661H102.732V42.6342H101.702Z" fill="white"/>
<path d="M104.338 45.2647V41.9661H105.079V45.2647H104.338Z" fill="white"/>
<path d="M108.455 45.2647C108.208 45.2647 108.002 45.2229 107.796 45.1394C107.59 45.0559 107.426 44.9306 107.302 44.7636C107.179 44.5966 107.055 44.4296 106.973 44.2208C106.89 44.012 106.849 43.8033 106.849 43.5945C106.849 43.3857 106.89 43.177 106.973 42.9682C107.055 42.7594 107.179 42.5924 107.302 42.4254C107.467 42.2584 107.632 42.1331 107.837 42.0496C108.043 41.9661 108.249 41.9243 108.496 41.9243C108.743 41.9243 108.949 41.9661 109.155 42.0496C109.361 42.1331 109.526 42.2584 109.649 42.4254C109.773 42.5924 109.896 42.7594 109.979 42.9682C110.061 43.177 110.102 43.3857 110.102 43.5945C110.102 43.8033 110.061 44.012 109.979 44.2208C109.896 44.4296 109.773 44.5966 109.649 44.7636C109.526 44.9306 109.32 45.0559 109.114 45.1394C108.908 45.2229 108.702 45.2647 108.455 45.2647ZM107.59 43.5945C107.59 43.7198 107.59 43.845 107.632 43.9703C107.673 44.0956 107.714 44.1791 107.796 44.3043C107.879 44.3878 107.961 44.4713 108.085 44.5131C108.208 44.5549 108.332 44.5966 108.455 44.5966C108.579 44.5966 108.743 44.5549 108.826 44.5131C108.949 44.4713 109.032 44.3878 109.073 44.3043C109.155 44.2208 109.196 44.0956 109.237 43.9703C109.279 43.845 109.279 43.7198 109.279 43.5945C109.279 43.4692 109.279 43.344 109.237 43.2187C109.196 43.0935 109.155 43.0099 109.073 42.8847C108.99 42.8012 108.908 42.7177 108.785 42.6759C108.661 42.6342 108.537 42.5924 108.414 42.5924C108.29 42.5924 108.126 42.6342 108.043 42.6759C107.92 42.7177 107.837 42.8012 107.796 42.8847C107.714 42.9682 107.673 43.0935 107.632 43.2187C107.632 43.344 107.59 43.4692 107.59 43.5945Z" fill="white"/>
<path d="M112.531 43.344V45.2229H111.79V41.9243H112.367L113.89 43.8868V41.9243H114.631V45.2229H114.055L112.531 43.344Z" fill="white"/>
<path d="M118.914 41.9661H120.313C120.478 41.9661 120.602 42.0078 120.725 42.0496C120.849 42.1331 120.972 42.2166 121.055 42.3001C121.137 42.4254 121.219 42.5089 121.26 42.6759C121.302 42.8012 121.343 42.9264 121.343 43.0934C121.343 43.2605 121.302 43.3857 121.26 43.511C121.219 43.6363 121.137 43.7615 121.055 43.8868C120.972 44.012 120.849 44.0956 120.725 44.1373C120.602 44.2208 120.437 44.2208 120.313 44.2208H119.655V45.3064H118.914V41.9661ZM119.696 43.511H120.313C120.396 43.511 120.478 43.4692 120.561 43.3857C120.643 43.3022 120.643 43.177 120.643 43.0517C120.643 42.9682 120.643 42.9264 120.602 42.8429C120.561 42.8012 120.561 42.7594 120.519 42.7177C120.478 42.6759 120.437 42.6342 120.396 42.6342C120.355 42.6342 120.313 42.5924 120.272 42.5924H119.696V43.511Z" fill="white"/>
<path d="M123.978 41.9243H124.678L125.872 45.2229H125.09L124.843 44.4713H123.813L123.566 45.2229H122.784L123.978 41.9243ZM124.678 43.9703L124.307 42.8012L123.937 43.9703H124.678Z" fill="white"/>
<path d="M127.437 45.2647V41.9661H128.919C129.084 41.9661 129.207 42.0078 129.331 42.0496C129.454 42.1331 129.578 42.2166 129.66 42.3001C129.743 42.4254 129.825 42.5089 129.866 42.6759C129.907 42.8012 129.948 42.9264 129.948 43.0934C129.948 43.177 129.948 43.3022 129.907 43.3857C129.866 43.4692 129.866 43.5527 129.784 43.6363C129.743 43.7198 129.701 43.8033 129.619 43.845C129.537 43.9285 129.495 43.9703 129.413 44.012L130.113 45.2229H129.29L128.672 44.1373H128.178V45.2229H127.437V45.2647ZM128.178 43.511H128.878C128.96 43.511 129.043 43.4692 129.125 43.3857C129.207 43.3022 129.207 43.177 129.207 43.0517C129.207 42.9264 129.166 42.8012 129.084 42.7177C129.001 42.6342 128.919 42.5924 128.837 42.5924H128.178V43.511Z" fill="white"/>
<path d="M133.284 42.6342V45.2647H132.542V42.6342H131.554V41.9661H134.313V42.6342H133.284Z" fill="white"/>
<path d="M136.701 43.344V45.2229H135.96V41.9243H136.536L138.06 43.8868V41.9243H138.801V45.2229H138.183L136.701 43.344Z" fill="white"/>
<path d="M143.001 44.5966V45.2647H140.695V41.9661H142.96V42.6342H141.477V43.2605H142.754V43.8868H141.477V44.5966H143.001Z" fill="white"/>
<path d="M144.771 45.2647V41.9661H146.254C146.418 41.9661 146.542 42.0078 146.665 42.0496C146.789 42.1331 146.912 42.2166 146.995 42.3001C147.077 42.4254 147.159 42.5089 147.201 42.6759C147.242 42.8012 147.283 42.9264 147.283 43.0934C147.283 43.177 147.283 43.3022 147.242 43.3857C147.201 43.4692 147.201 43.5527 147.118 43.6363C147.077 43.7198 147.036 43.8033 146.954 43.845C146.871 43.9285 146.83 43.9703 146.748 44.012L147.448 45.2229H146.583L145.965 44.1373H145.471V45.2229H144.771V45.2647ZM145.512 43.511H146.212C146.295 43.511 146.377 43.4692 146.46 43.3857C146.542 43.3022 146.542 43.177 146.542 43.0517C146.542 42.9264 146.501 42.8012 146.418 42.7177C146.336 42.6342 146.254 42.5924 146.171 42.5924H145.512V43.511Z" fill="white"/>
<path d="M105.284 27.8527V39.2934L108.208 36.3289V24.8882L105.284 27.8527ZM118.543 24.8882L117.308 26.0991L116.113 24.8882H110.678L108.414 27.1847H115.866V39.2934L118.79 36.3289V27.1847H126.284V39.2934L129.207 36.3289V27.1847L126.942 24.8882H118.543ZM134.848 24.8882L132.378 27.1847H132.336V30.7338L134.807 33.0303H147.077V36.9552H136.783L134.519 39.2517H147.53L150 36.9552V33.0303L147.53 30.7338H135.26V27.1847H146.459L148.724 24.8882H134.848Z" fill="white"/>
<path d="M11.0349 24.8882L8.56437 27.1846H8.5232V30.7338L10.9937 33.0302H16.8817L19.1875 30.7338H11.4466V27.1846H22.6462L24.9108 24.8882H11.0349ZM20.958 6.34925L18.6522 8.68749V18.4162L20.9168 20.7127H29.1106L31.3752 18.4162L21.5756 18.458V8.68749L34.381 8.72924V12.4036L21.8227 12.4454L24.0873 14.7419H35.081L37.3456 12.4454V8.771L34.8751 6.391H20.958V6.34925ZM0.0411749 3.88574L0 20.7127H13.2583L15.5229 18.4162H2.92341V3.88574H0.0411749Z" fill="white"/>
<path d="M19.1463 30.7341L16.8817 33.0305H23.2638V36.9554H12.9701L10.7054 39.2519H23.7167L26.1872 36.9554V33.0305L23.7167 30.7341H19.1463ZM29.2753 27.853V36.9554L31.5399 39.2519H38.5808L40.8454 36.9554H32.1987V24.8885L29.2753 27.853ZM41.0513 27.3102V42.9681H31.4987L29.2341 45.2646H41.5454L44.0159 42.9681V24.8885L41.0513 27.3102ZM49.698 24.8885L47.2275 27.1849H47.1864V30.7341L49.6569 33.0305H56.6566L58.9624 30.7341H50.1098V27.1849H62.2564L64.521 24.8885H49.698ZM43.3571 6.34955L41.0925 8.64603H53.7743V12.1534H41.9983L39.7337 14.4499V18.4165L41.9983 20.713H51.2215L53.4861 18.4165H42.616V14.4499H53.692V20.713L56.6154 17.7902V8.64603L54.1037 6.34955H43.3571ZM77.9028 0.253418L74.9794 2.96745V6.30779H62.0505L59.7859 8.60428V18.3748L62.0505 20.6713H69.2149L71.4795 18.3748H62.6681V8.64603H74.9794V14.9092L77.9028 12.0281V0.253418Z" fill="white"/>
<path d="M83.5851 6.3501H97.4198L99.8903 8.73009V12.4045L97.6257 14.701H86.632L84.3674 12.4045L96.9257 12.3627V8.68834L84.1204 8.64658V18.3753L93.92 18.3336L91.6554 20.6301H83.4616L81.197 18.3336V8.68834L83.0498 6.80939L83.5851 6.3501ZM113.231 6.3501L108.702 10.9431L104.173 6.3501H100.467L106.849 12.822L99.0668 20.7136H102.773L108.702 14.701L113.396 19.4609L115.249 17.582L110.596 12.8638L116.978 6.39185H113.231V6.3501ZM74.9796 20.7136H77.903V11.9869L74.9796 14.868V20.7136ZM62.38 30.7346H58.9625L56.6156 33.0311H61.8859V36.956H52.704L50.3982 39.2525H62.4212L64.8917 36.956V33.0311L62.38 30.7346ZM93.8376 39.2525L96.1022 36.956L86.3026 36.9978V27.2272L99.108 27.269V30.9434L86.5497 30.9851L88.8143 33.2816H99.808L99.8903 33.1981L102.073 30.9851V27.3108L99.6021 24.9308H85.7674L83.4616 27.269V36.9978L85.7262 39.2942H93.8376V39.2525ZM70.7385 36.956L73.0032 39.2525H74.2384L76.503 36.956H73.662V27.1855H80.2499L82.5557 24.889H73.662V22.4255H70.7385V24.889H67.4034V27.1855H70.7385V36.956Z" fill="white"/>
</g>
</g>
<defs>
<clipPath id="clip0_1_497">
<rect width="150" height="46" fill="white"/>
</clipPath>
<clipPath id="clip1_1_497">
<rect width="150" height="46" fill="white"/>
</clipPath>
</defs>
</svg>
