<svg width="80" height="80" viewBox="0 0 80 80" fill="none" xmlns="http://www.w3.org/2000/svg">
<path d="M47.1281 38.2V60.6H59.9281C60.7767 60.6 61.5907 60.2629 62.1908 59.6627C62.7909 59.0626 63.1281 58.2487 63.1281 57.4V27" stroke="white" stroke-width="2" stroke-linecap="round" stroke-linejoin="round"/>
<path d="M47.1281 31.7999V20.5999C47.1281 19.7512 47.4652 18.9373 48.0653 18.3372C48.6654 17.7371 49.4794 17.3999 50.3281 17.3999H59.9281C60.7767 17.3999 61.5907 17.7371 62.1908 18.3372C62.7909 18.9373 63.1281 19.7512 63.1281 20.5999" stroke="white" stroke-width="2" stroke-linecap="round" stroke-linejoin="round"/>
<path d="M47.128 31.8H34.3281C33.4794 31.8 32.6654 32.1373 32.0653 32.7374C31.4652 33.3375 31.1281 34.1514 31.1281 35V60.6002H47.128V31.8Z" stroke="white" stroke-width="2" stroke-linecap="round" stroke-linejoin="round"/>
<path d="M31.144 60.5999H18.344C17.4954 60.5999 16.6814 60.2628 16.0813 59.6627C15.4812 59.0626 15.144 58.2487 15.144 57.4V49.4C15.144 48.5513 15.4812 47.7372 16.0813 47.1371C16.6814 46.537 17.4954 46.2 18.344 46.2H31.144V60.5999Z" stroke="white" stroke-width="2" stroke-linecap="round" stroke-linejoin="round"/>
<path d="M31.1281 38.2L47.128 54.1999" stroke="white" stroke-width="2" stroke-linecap="round" stroke-linejoin="round"/>
<path d="M31.1281 48.6001L42.3281 59.8001" stroke="white" stroke-width="2" stroke-linecap="round" stroke-linejoin="round"/>
<path d="M35.1281 31.8L46.3281 43.0001" stroke="white" stroke-width="2" stroke-linecap="round" stroke-linejoin="round"/>
</svg>
