<svg width="80" height="80" viewBox="0 0 80 80" fill="none" xmlns="http://www.w3.org/2000/svg">
<path d="M38.496 40.656L23.28 56.656" stroke="white" stroke-width="2" stroke-linecap="round" stroke-linejoin="round"/>
<path d="M29.6 51.2L42.544 63.9999" stroke="white" stroke-width="2" stroke-linecap="round" stroke-linejoin="round"/>
<path d="M36 46.3999L50.608 61.5839" stroke="white" stroke-width="2" stroke-linecap="round" stroke-linejoin="round"/>
<path d="M40.592 41.168L56.256 56.768" stroke="white" stroke-width="2" stroke-linecap="round" stroke-linejoin="round"/>
<path d="M52.224 41.824L61.904 51.952" stroke="white" stroke-width="2" stroke-linecap="round" stroke-linejoin="round"/>
<path d="M19.312 51.6318C17.6305 48.7744 16.5421 45.6073 16.112 42.3198" stroke="white" stroke-width="2" stroke-linecap="round" stroke-linejoin="round"/>
<path d="M23.728 57.1679C27.0741 60.3095 31.2206 62.4689 35.7129 63.4095C40.2052 64.35 44.8698 64.0353 49.195 62.4999C53.5203 60.9645 57.3392 58.2677 60.233 54.7052C63.1268 51.1427 64.9837 46.8521 65.6 42.3039V41.7119" stroke="white" stroke-width="2" stroke-linecap="round" stroke-linejoin="round"/>
<path d="M65.6 35.1999C65.4014 33.794 65.0638 32.4112 64.592 31.0719C63.124 26.7541 60.5047 22.9191 57.0167 19.981C53.5287 17.0428 49.3045 15.113 44.8 14.3999V35.1999H65.6Z" stroke="white" stroke-width="2" stroke-linecap="round" stroke-linejoin="round"/>
<path d="M16.128 35.8879C16.8492 30.4287 19.3554 25.3613 23.2564 21.4748C27.1574 17.5882 32.2342 15.1008 37.696 14.3999H38.4V38.3999C38.4 40.1759 40.624 41.5999 42.4 41.5999H65.6" stroke="white" stroke-width="2" stroke-linecap="round" stroke-linejoin="round"/>
</svg>
