<svg width="80" height="80" viewBox="0 0 80 80" fill="none" xmlns="http://www.w3.org/2000/svg">
<path fill-rule="evenodd" clip-rule="evenodd" d="M51.6547 22.8348L51.8189 23.6333H55.0079C57.6039 23.6366 60.0926 24.6694 61.9283 26.505C63.7642 28.3409 64.7969 30.8299 64.8 33.4262V55.0071C64.7969 57.6034 63.7642 60.0925 61.9283 61.9283C60.0925 63.7642 57.6034 64.7969 55.0071 64.8H24.7929C22.1966 64.7969 19.7075 63.7642 17.8717 61.9283C16.036 60.0926 15.0033 57.6038 15 55.0077V33.4256C15.0033 30.8295 16.036 28.3407 17.8717 26.505C19.7074 24.6694 22.1969 23.6366 24.7929 23.6333H27.9811L28.1453 22.8348C28.5999 20.6242 29.8027 18.638 31.551 17.2108C33.2991 15.7838 35.4857 15.003 37.7423 15H42.0577C44.3143 15.003 46.5009 15.7838 48.249 17.2108C49.9973 18.638 51.2001 20.6242 51.6547 22.8348ZM37.7375 17.3167H37.7417H42.0625C43.603 17.3231 45.1039 17.8053 46.3599 18.6973C47.6158 19.5893 48.5655 20.8476 49.079 22.3L49.5504 23.6333H30.2496L30.721 22.3C31.2345 20.8476 32.1842 19.5893 33.4401 18.6973C34.6961 17.8053 36.197 17.3231 37.7375 17.3167ZM17.3167 33.425C17.3167 31.4425 18.1042 29.5412 19.506 28.1394C20.9079 26.7375 22.8092 25.95 24.7917 25.95H55.0083C56.9908 25.95 58.8921 26.7375 60.294 28.1394C61.6958 29.5412 62.4833 31.4425 62.4833 33.425V40.9H17.3167V33.425ZM38.7417 46.375C38.7417 46.6822 38.8637 46.9768 39.0809 47.1941C39.2982 47.4113 39.5928 47.5333 39.9 47.5333C40.2072 47.5333 40.5018 47.4113 40.7191 47.1941C40.9363 46.9768 41.0583 46.6822 41.0583 46.375V43.2167H62.4833V55.0083C62.4833 56.9908 61.6958 58.8921 60.294 60.294C58.8921 61.6958 56.9908 62.4833 55.0083 62.4833H24.7917C22.8092 62.4833 20.9079 61.6958 19.506 60.294C18.1042 58.8921 17.3167 56.9908 17.3167 55.0083V43.2167H38.7417V46.375Z" fill="white"/>
</svg>
